<svg xmlns="http://www.w3.org/2000/svg" width="400" height="400"><path fill="#FCFDFC" d="M0 36h400v281H0z"/><path fill="#FBFCFB" d="M271 71h2l1 12 6 1v2l2.063.188c3.905 1.08 6.97 3.052 9.937 5.812l1 3h4c-1.708 3.55-3.742 6.794-5.879 10.098-1.272 2.007-1.272 2.007-2.121 4.902h-3v3l2.136.427 2.981.596 3.281.657 3.477.695 3.36.672L311 118l3.052.61L321 120c-3.035 2.024-4.194 2.321-7.687 2.625l-2.45.227L309 123v2h4c1.675 7.8 2.365 15.28 2.375 23.25l.074 3.14c.033 8.505-2.145 12.98-7.449 19.61 12.08-3.717 22.176-12.296 32-20l2.367-1.855C358.427 135.742 367.59 117.13 375 98h3q1.222 4.343 2.438 8.688l.697 2.474c5.932 21.237 2.27 41.565-8.135 60.838l2.938-2.5C379 165 379 165 380 165c1.55 14.326-5.205 30.114-13.937 41.188-1.837 2.225-3.68 4.408-5.665 6.503-3.462 3.694-5.456 7.388-7.586 11.996C345.177 240.97 330.405 251.496 314 258c-6.86 2.224-13.996 3.7-21.16 4.48-7.351.802-7.351.802-13.082 5.024-1.781 3.099-3.27 6.248-4.758 9.496-2.17 3.457-4.565 6.726-7 10l-2.09 2.89c-5.679 7.466-11.085 12.206-20.535 13.673-10.203-1.701-17.081-8.762-23.057-16.835C218.42 281.235 214.69 275.633 211 270l-2-3c.175-3.406.772-4.745 3.063-7.312L214 258c4.024 1.341 5.367 3.996 7.625 7.375l1.234 1.79c1.763 2.59 3.145 4.847 4.141 7.835h2c.26-.59.52-1.178.79-1.785 4.92-9 15.306-12.345 24.503-15.258 4.299-1.11 8.567-1.823 12.957-2.457l2.633-.393c5.19-.753 10.372-1.35 15.594-1.825 18.476-1.694 35.811-7.217 49.523-20.282a84 84 0 0 0 3-4l-3.125 1.75c-12.462 6.148-26.618 7.736-40.187 9.875q-4.216.674-8.428 1.356-2.596.419-5.196.828c-5.406.864-10.733 1.944-16.064 3.191 5.903-7.244 16.135-9.948 24.75-12.562l2.92-.91a527 527 0 0 1 15.705-4.59c21.283-6.001 42.833-14.887 54.316-34.883A358 358 0 0 0 367 185l-1.363 1.066c-14.612 11.215-30.305 19.172-47.733 24.957a1087 1087 0 0 0-10.92 3.758q-3.27 1.136-6.543 2.271l-4.359 1.515q-3.094 1.075-6.191 2.14l-3.656 1.265A61 61 0 0 1 278 224c6.767-7.426 17.24-11.704 26.188-15.875C325.52 198.17 348.824 186.4 362 166l1.547-2.258c6.046-9.308 9.65-20.416 9.515-31.554l-.027-2.958L373 127l-.812 1.617C362.92 146.237 347.403 160.11 331 171l-1.948 1.297c-11.595 7.61-23.897 13.863-36.227 20.17C279.457 199.304 266.244 206.26 254 215l-1.818 1.287c-20.972 14.94-37.135 32.506-51.716 53.604-21.585 31.06-21.585 31.06-32.939 33.68-5.766.41-9.704-1.11-14.257-4.587-14.87-13.001-23.389-31.07-31.32-48.872-.69-1.536-1.4-3.064-2.118-4.587-3.823-8.17-6.771-16.565-9.701-25.088l-1.143-3.257-1.014-2.946c-.76-2.394-.76-2.394-2.974-3.234v-7l4-2c-4.115-3.564-8.474-5.973-13.25-8.5C73.06 181.164 51.077 164.674 38 142c-1.298 15.976 6.228 30.6 16.078 42.7 8.052 9.396 18.187 16.378 28.5 23.054C89.332 212.14 95.582 217.026 101 223v2c-13.449-5.325-26.833-11.113-39.625-17.875l-1.983-1.043c-4.39-2.377-8.375-5.119-12.392-8.082 4.903 12.128 13.502 20.062 25 26l1.758.92c4.297 2.208 8.654 4.093 13.145 5.87 8.444 3.363 16.44 6.821 23.097 13.21l1 3c-12.098-2.33-24.083-4.87-36-8 9.03 7.894 17.796 12.103 29.188 15.438 8.216 2.419 13.805 5.57 18.812 12.562l-1 2c-37.072-8.432-37.072-8.432-49-18l-1.922-1.43c-6.684-5.234-11.084-12.293-14.703-19.882-1.94-4.05-4.016-6.649-7.375-9.688-9.647-9.602-16.88-24.284-18.309-37.953-.003-2.484-.003-2.484.309-6.047a42.4 42.4 0 0 1 8 5l-2.187-3.125c-9.991-16.036-12.199-36.222-8.5-54.5C29.454 118.656 30.83 114.34 33 110c2.29 2.86 3.887 5.66 5.383 9 4.982 10.907 9.683 20.91 17.617 30l2.29 2.77C69.624 164.97 84.178 174.168 99 183a252 252 0 0 0-2.062-18.062c-3.032-22.427-1.028-44.477 12.812-63.063C117.865 91.505 128.797 83.335 142 81c23.011-2.171 41.565 3.889 59.563 18.594 2.337 1.634 2.337 1.634 4.988 1.324 2.717-1.018 4.429-2.23 6.637-4.106 13.536-10.954 26.95-16.207 44.312-15.937l3.36.027c2.713.024 5.427.06 8.14.098z"/><path fill="#68B3CC" d="M376 97c4.023 3.494 4.523 7.726 5.688 12.75l.666 2.857c4.432 20.195.38 39.361-9.354 57.393l2.938-2.5C379 165 379 165 380 165c1.55 14.326-5.205 30.114-13.937 41.188-1.837 2.225-3.68 4.408-5.665 6.503-3.462 3.694-5.456 7.388-7.586 11.996C345.177 240.97 330.405 251.496 314 258c-6.86 2.224-13.996 3.7-21.16 4.48-7.351.802-7.351.802-13.082 5.024-1.781 3.099-3.27 6.248-4.758 9.496-2.17 3.457-4.565 6.726-7 10l-2.09 2.89c-5.679 7.466-11.085 12.206-20.535 13.673-10.203-1.701-17.081-8.762-23.057-16.835C218.42 281.235 214.69 275.633 211 270l-2-3c.175-3.406.772-4.745 3.063-7.312L214 258c4.024 1.341 5.367 3.996 7.625 7.375.407.59.815 1.18 1.234 1.79 1.763 2.59 3.145 4.847 4.141 7.835h2c.26-.59.52-1.178.79-1.785 4.92-9 15.306-12.345 24.503-15.258 4.299-1.11 8.567-1.823 12.957-2.457l2.633-.393c5.19-.753 10.372-1.35 15.594-1.825 18.476-1.694 35.811-7.217 49.523-20.282a84 84 0 0 0 3-4l-3.125 1.75c-12.462 6.148-26.618 7.736-40.187 9.875q-4.216.674-8.428 1.356-2.596.419-5.196.828c-5.406.864-10.733 1.944-16.064 3.191 5.903-7.244 16.135-9.948 24.75-12.562l2.92-.91a527 527 0 0 1 15.705-4.59c21.283-6.001 42.833-14.887 54.316-34.883A358 358 0 0 0 367 185l-1.363 1.066c-14.612 11.215-30.305 19.172-47.733 24.957a1087 1087 0 0 0-10.92 3.758q-3.27 1.136-6.543 2.271l-4.359 1.515q-3.094 1.075-6.191 2.14l-3.656 1.265A61 61 0 0 1 278 224c6.767-7.426 17.24-11.704 26.188-15.875C325.52 198.17 348.824 186.4 362 166l1.547-2.258c6.046-9.308 9.65-20.416 9.515-31.554l-.027-2.958L373 127l-.812 1.617C362.92 146.237 347.403 160.11 331 171l-1.948 1.297c-11.595 7.61-23.897 13.863-36.227 20.17C279.457 199.304 266.244 206.26 254 215l-1.818 1.287c-20.972 14.94-37.135 32.506-51.716 53.604-21.585 31.06-21.585 31.06-32.939 33.68-5.766.41-9.704-1.11-14.257-4.587-14.873-13.003-23.39-31.073-31.322-48.877a282 282 0 0 0-2.094-4.536c-3.515-7.514-6.392-15.194-9.166-23.008l-1.377-3.795-2.472-6.918C106 209 106 209 106 205c11.09 3.432 11.09 3.432 12.964 6.66.808 2.092 1.47 4.187 2.099 6.34q.752 2.335 1.515 4.668l.733 2.279c1.153 3.434 2.666 6.66 4.22 9.928a308 308 0 0 1 3.5 7.75c7.397 16.879 15.822 35.97 29.969 48.375 3.941.7 6.336 1.077 9.732-1.12 4.254-3.732 7.704-7.676 11.018-12.255l1.544-2.092c3.59-4.899 7.04-9.888 10.456-14.908 7.261-10.667 15.41-20.251 24.25-29.625l2.094-2.223c19.933-20.545 45.571-34.022 70.728-46.987 37.413-19.352 67.037-40.15 82.83-80.466C375 98 375 98 376 97"/><path fill="#69B3CC" d="M193 93c2.91 2.138 5.766 4.309 8.563 6.594 2.337 1.634 2.337 1.634 4.988 1.324 2.717-1.018 4.429-2.23 6.637-4.106C226.078 86.38 239.377 80.578 256 80.876l2.926.027c2.358.024 4.716.06 7.074.098l-1 10-3.516.078c-20.078.638-34.684 7.663-49.629 20.815-3.869 3.37-7.874 6.36-12.167 9.17-1.09.712-2.179 1.425-3.301 2.16C188.16 127.54 179.159 128.1 170 127c-6.427-2.387-10.829-5.945-14-12q2.22.715 4.438 1.438l2.496.808C165 118 165 118 166 119c9.105.943 18.32-.245 26.086-5.379 1.82-1.454 1.82-1.454 3.914-3.621-3.533-3.812-7.123-6.544-11.687-9.062l-1.86-1.042c-13.01-7.155-26.96-10.296-41.726-7.212C134.662 94.73 129.784 97.786 125 102l-1.836 1.555c-9.737 8.886-15.156 22.979-16.066 36L107 142l-.191 3.008C106.376 157.47 108.557 169.81 111 182l.159 1.938c.461 3.415 1.019 5.397 3.755 7.61 2.662 1.52 5.361 2.823 8.148 4.097l3.091 1.5a849 849 0 0 0 9.847 4.667c4.277 2.035 8.547 4.086 12.813 6.145l3.156 1.52C165.907 216.272 178.863 224.353 191 234c.975.77 1.95 1.542 2.953 2.336A939 939 0 0 1 201 242c-1.35 4.419-3.261 6.343-7 9l-1.879-1.836c-17.436-16.497-39.195-26.932-60.658-37.207C96.733 195.296 58.023 176.714 38 142c-1.298 15.976 6.228 30.6 16.078 42.7 8.052 9.396 18.187 16.378 28.5 23.054C89.332 212.14 95.582 217.026 101 223v2c-13.449-5.325-26.833-11.113-39.625-17.875l-1.983-1.043c-4.39-2.377-8.375-5.119-12.392-8.082 4.903 12.128 13.502 20.062 25 26l1.758.92c4.297 2.208 8.654 4.093 13.145 5.87 8.444 3.363 16.44 6.821 23.097 13.21l1 3c-12.098-2.33-24.083-4.87-36-8 9.03 7.894 17.796 12.103 29.188 15.438 8.216 2.419 13.805 5.57 18.812 12.562l-1 2c-37.072-8.432-37.072-8.432-49-18l-1.922-1.43c-6.684-5.234-11.084-12.293-14.703-19.882-1.94-4.05-4.016-6.649-7.375-9.688-9.647-9.602-16.88-24.284-18.309-37.953-.003-2.484-.003-2.484.309-6.047a42.4 42.4 0 0 1 8 5l-2.187-3.125c-9.991-16.036-12.199-36.222-8.5-54.5C29.454 118.656 30.83 114.34 33 110c2.29 2.86 3.887 5.66 5.383 9 4.982 10.907 9.683 20.91 17.617 30l2.29 2.77C69.624 164.97 84.178 174.168 99 183a252 252 0 0 0-2.062-18.062c-3.032-22.427-1.028-44.477 12.812-63.063C131.163 74.514 165.431 75.822 193 93"/><path fill="#69B2CB" d="M343.313 151.25 346 152l2 6c-18.026 14.938-37.802 25.66-58.568 36.219C277.186 200.459 265.2 207.006 254 215l-1.818 1.287c-20.972 14.94-37.135 32.506-51.716 53.604-21.585 31.06-21.585 31.06-32.939 33.68-5.766.41-9.704-1.11-14.257-4.587-14.873-13.003-23.39-31.073-31.322-48.877a282 282 0 0 0-2.094-4.536c-3.515-7.514-6.392-15.194-9.166-23.008l-1.377-3.795c-.43-1.201-.858-2.402-1.3-3.64l-1.172-3.278C106 209 106 209 106 205c11.09 3.432 11.09 3.432 12.964 6.66.808 2.092 1.47 4.187 2.099 6.34q.752 2.335 1.515 4.668l.733 2.279c1.153 3.434 2.666 6.66 4.22 9.928a308 308 0 0 1 3.5 7.75c7.397 16.879 15.822 35.97 29.969 48.375 3.941.7 6.336 1.077 9.732-1.12 4.254-3.732 7.704-7.676 11.018-12.255l1.544-2.092c3.59-4.899 7.04-9.888 10.456-14.908 7.261-10.667 15.41-20.251 24.25-29.625l2.094-2.223c19.933-20.545 45.571-34.022 70.728-46.987 16.214-8.387 32.946-17.224 46.916-29.122C340 151 340 151 343.313 151.25"/><path fill="#6CB3CB" d="m258 147 2 1c-.543 5.315-1.872 9.8-4.062 14.688l-.94 2.11C250.042 175.581 243.186 184.467 235 193l-2.066 2.223c-9.069 9.494-19.557 14.67-32.894 15.252-17.77.219-31.237-7.81-44.04-19.475-14.665-14.396-14.665-14.396-15.25-22.437L141 166c4.052.338 7.07.887 10.645 2.848 4.53 2.337 9.175 3.86 14.042 5.34l2.51.787c15.745 4.878 34.485 5.649 49.803-.975l3.39-1.25c14.444-5.6 25.584-15.128 36.61-25.75"/><path fill="#E2C477" d="M271 71h2l1 12 6 1v2l2.063.188c3.905 1.08 6.97 3.052 9.937 5.812l1 3h4c-1.708 3.55-3.742 6.794-5.879 10.098-1.272 2.007-1.272 2.007-2.121 4.902h-3v3l2.136.427 2.981.596 3.281.657 3.477.695 3.36.672L311 118l3.052.61L321 120c-3.36 2.24-5.571 2.621-9.531 3.29l-3.895.663-2.026.334q-3.062.507-6.122 1.033C289.458 127 289.458 127 286 127l1.75 2.992 2.25 3.883 1.156 1.973C294 140.773 294 140.773 294 143c-6.264-1.484-10.915-5.242-16-9l-.332 3.086c-1.188 10.71-2.806 21.302-4.668 31.914l-2-1c-.686-2.696-.686-2.696-1.29-6.266l-.663-3.886-.334-2.039a786 786 0 0 0-1.033-6.11C265.85 138.826 265.85 138.826 266 134l-2.668 1.68-3.52 2.195-1.751 1.105c-3.264 2.029-6.442 3.725-10.061 5.02l1.172-1.941 1.578-2.621 1.547-2.567c1.94-3.27 3.824-6.566 5.703-9.871l-2.46-.335a5241 5241 0 0 1-11.102-1.54l-3.87-.527-3.76-.528-3.443-.476c-3.571-.63-6.898-1.542-10.365-2.594v-1q5.686-.975 11.375-1.937l3.215-.553c6.457-1.09 12.884-1.963 19.41-2.51v-5h-2c-1.691-2.3-1.691-2.3-3.562-5.312l-1.88-2.989C248 99 248 99 247 96c4.369 1.365 7.437 3.773 10.996 6.535 2.518 1.84 5.165 3.187 8.004 4.465l-.062-3.312C266 100 266 100 267 97c.34-2.52.651-5.036.938-7.562.735-6.217 1.681-12.326 3.062-18.438"/><path fill="#69B2CC" d="M293 254v2h5v2l8 1c-3.519 2.346-6.732 2.827-10.812 3.5-7.246 1.181-7.246 1.181-14.188 3.5-1.807 3.13-1.807 3.13-2.828 5.54-5.383 11.302-14.99 25.807-26.863 30.753-4.828 1.478-8.52 1.252-13.121-.668-12.366-6.94-19.651-20.12-27.188-31.625l-2-3c.175-3.406.772-4.745 3.063-7.312L214 258c4.024 1.341 5.367 3.996 7.625 7.375.407.59.815 1.18 1.234 1.79 1.763 2.59 3.145 4.847 4.141 7.835h2c.26-.59.52-1.178.79-1.785 4.915-8.992 15.295-12.347 24.487-15.25 4.384-1.136 8.748-1.915 13.223-2.59l2.634-.4c7.674-1.088 15.126-1.292 22.866-.975"/><path fill="#68B1CA" d="m258 147 2 1c-.543 5.315-1.872 9.8-4.062 14.688l-.94 2.11C250.042 175.581 243.186 184.467 235 193l-2.066 2.223c-9.176 9.606-19.887 14.825-33.358 15.145-9.803.032-9.803.032-13.576-2.368.313-1.875.313-1.875 1-4 3.65-2.433 5.53-2.227 9.875-2.312 15.143-.672 25.682-7.779 36.004-18.297 3.135-3.533 5.686-7.352 8.121-11.391l-2.203 1.355C218.964 185.281 218.964 185.281 210 184c-2.812-1-2.812-1-5-2h-2q-3.562-.24-7.125-.5l-3.883-.281L189 181v-1l3.043-.297c9.044-.957 17.378-2.547 25.957-5.703l3.426-1.242C235.843 167.08 246.964 157.632 258 147"/><path fill="#B19155" d="m305.121 116.777 3.504.723 3.621.723q4.38.876 8.754 1.777c-3.36 2.24-5.571 2.621-9.531 3.29l-3.895.663-2.026.334q-3.062.507-6.122 1.033C289.458 127 289.458 127 286 127l1.75 2.992 2.25 3.883 1.156 1.973C294 140.773 294 140.773 294 143c-6.264-1.484-10.915-5.242-16-9l-.332 3.086c-1.188 10.71-2.806 21.302-4.668 31.914l-2-1c-.686-2.696-.686-2.696-1.29-6.266l-.663-3.886-.334-2.039a786 786 0 0 0-1.033-6.11C265.85 138.826 265.85 138.826 266 134l-2.687 2c-3.294 1.989-4.596 2.437-8.313 2l1.375-2.625c1.488-3.09 2.613-6.104 3.625-9.375-2.332-1.206-4.496-2.165-7-3 1.063-1.937 1.063-1.937 3-4 3.688-.75 3.688-.75 7-1l1 9 3 1v-2l2.375-.312c2.955-.464 2.955-.464 4.625-3.688h2q2.505-.476 5-1l.313-1.875c2.671-8.257 17.764-3.543 23.808-2.348"/><path fill="#F5FBF9" d="m240 171 2 1c-9.664 14.315-20.04 24.987-37 30-12.382 1.584-25.939-2.923-35.792-10.35-3.852-3.088-7.55-6.335-11.208-9.65l1-2 1.8.805 2.512 1.07 2.426 1.055c8.44 2.77 16.866 3.408 25.7 3.32l3.064-.027c17.08-.266 31.764-4.808 45.498-15.223"/><path fill="#E6CA7E" d="M296 95c0 3.605-.887 4.605-2.937 7.5-1.823 2.586-3.056 4.479-4.063 7.5h-3v3l3 2-7 2-1 5-2.375.313c-2.955.463-2.955.463-4.625 3.687h-7v2h-4v-10h-2l-1 2h-4l-1 3 1.875.313C259 124 259 124 261 127c-1.064 3.677-2.971 6.773-5 10l2 2a351 351 0 0 1-3.875 2.563l-2.18 1.44L250 144l-2-1 1.625-1.812c2.158-2.896 3.817-5.715 5.523-8.887l1.623-3.007L258 127l-2.46-.335a5241 5241 0 0 1-11.102-1.54l-3.87-.527-3.76-.528-3.443-.476c-3.571-.63-6.898-1.542-10.365-2.594v-1q5.686-.975 11.375-1.937l3.215-.553c5.765-.973 11.433-1.771 17.276-2.07 2.646-.545 4.027-1.789 6.134-3.44 3.25-.687 3.25-.687 6-1 .75 2.188.75 2.188 1 5-1.937 2.813-1.937 2.813-4 5l3-1 2 1c1.46-2.647 2-3.894 2-7 .286-2.674.65-5.334 1-8h2l2-4h2l1 5 6.25-4.312 1.777-1.225c3.036-2.098 6.042-4.22 8.973-6.463"/><path fill="#F7FBFA" d="M269 266c-4.836 9.635-10.69 20.057-20 26-3.5.75-3.5.75-7 0-3.631-2.793-5.702-5.647-6.687-10.125 1.171-4.9 4.506-7.013 8.437-9.883 7.46-4.572 16.54-6.689 25.25-5.992"/><path fill="#6DB5CE" d="M313 126c1.82 7.489 2.336 14.62 2.313 22.313l.048 3.205.002 3.095.01 2.775c-.554 3.883-2.232 6.583-5.127 9.194l-1.808 1.23-1.817 1.27C305 170 305 170 303 170v-42c6-2 6-2 10-2"/><path fill="#FFF" d="M0 318h400v1H0zM0 34h400v1H0z"/><path fill="#D6B469" d="M296 95c0 3.605-.887 4.605-2.937 7.5-1.823 2.586-3.056 4.479-4.063 7.5h-3v3l3 2-7 2-1 5-2.375.313c-2.955.463-2.955.463-4.625 3.687l-10-2v-2h2l1-2 2 1c1.46-2.647 2-3.894 2-7 .286-2.674.65-5.334 1-8h2l2-4h2l1 5 6.25-4.312 1.777-1.225c3.036-2.098 6.042-4.22 8.973-6.463"/><path fill="#E5F1EB" d="M294 99c2.625 0 2.625 0 6 1 2.368 2.43 4.176 5.148 6 8l1.875 2.875C309 113 309 113 309 115c-7.259 3.98-16.375.64-24-1l1-4h3l.25-2.125c.92-3.528 2.631-5.936 4.75-8.875"/><path fill="#F6F5E1" d="m275 83 5 1v2l2.063.188c3.905 1.08 6.97 3.052 9.937 5.812l1 3 2 2q-3.966 2.755-7.937 5.5l-2.288 1.59-2.177 1.504-2.016 1.396C279 108 279 108 278 108q-.758-4.56-1.5-9.125l-.434-2.594c-.723-4.478-1.245-8.727-1.066-13.281"/><path fill="#63B0CA" d="M313 126v5l-2 1c-3.26 9.218-2.133 20.487-1 30l-2 1-.375-2.437L307 158l-2-1-.184-3.297c-.486-8.58-1.04-17.143-1.816-25.703 3.62-1.316 6.096-2 10-2"/><path fill="#BF9D55" d="m263 118 1 9 3 1 1-2 .375 3.438L269 133l2 1-5 5v-5l-2.687 2c-3.294 1.989-4.596 2.437-8.313 2l1.375-2.625c1.488-3.09 2.613-6.104 3.625-9.375-2.332-1.206-4.496-2.165-7-3 1.658-2.705 2.459-3.842 5.563-4.75C261 118 261 118 263 118"/><path fill="#BB9957" d="M273 122c3.112 0 5.942.456 9 1-1.312 2.938-1.312 2.938-3 6l-3 1c-1.648 2.602-2 3.862-2 7l-2 2a89 89 0 0 0-1.625 5.625c-.26 1.003-.52 2.006-.79 3.04L269 150h-1a554 554 0 0 1-.625-6.312l-.352-3.551C267 137 267 137 269 134l-1-2 1-2-2-1 1-3 4-1z"/><path fill="#ECD185" d="M271 71h2c.39 2.603.762 5.206 1.125 7.813l.34 2.236c.762 5.611.762 5.611-1.465 8.951-.308 2.114-.308 2.114-.375 4.375-.381 4.357-1.644 6.364-4.625 9.625-.778 2.182-.778 2.182-1 4l-4 1v-2h3l-.062-3.312C266 100 266 100 267 97c.34-2.52.651-5.036.938-7.562.735-6.217 1.681-12.326 3.062-18.438"/><path fill="#D3B573" d="M296 95c0 3.605-.887 4.605-2.937 7.5-1.823 2.586-3.056 4.479-4.063 7.5h-3v3l3 2-7-1v-3l-1.937.563L278 112l-1-1-2 2 2-11h1l1 5 6.25-4.312 1.777-1.225c3.036-2.098 6.042-4.22 8.973-6.463"/><path fill="#71B1C6" d="m142.438 155.75 2.37-.078c2.671.4 3.512 1.275 5.192 3.328l-2.3.445c-6.188 1.247-6.188 1.247-10.825 5.18-1.068 4.118-1.602 8.135-1.875 12.375-3.34-3.05-3.926-5.247-4.375-9.812.025-3.326.639-5.054 2.75-7.625 3.248-3.17 4.665-3.726 9.063-3.813"/><path fill="#69B0C7" d="M298 100c3.857 1.476 5.218 3.47 7.25 7l1.578 2.688C308 112 308 112 308 114l-13-2c-1.252-6.26-.277-6.936 3-12"/><path fill="#6AAFC8" d="M279 85c4.78 1.912 8.798 4.028 13 7-1.355 4.065-3.308 4.973-7 7-2.375-.25-2.375-.25-4-1-1.452-4.537-2.235-8.18-2-13"/><path fill="#7EB5C6" d="M302 210v2l-3 2 10-1c-2.787 1.858-5.013 2.82-8.148 3.91l-3.047 1.06-3.18 1.093-3.156 1.103c-4.478 1.549-8.797 2.993-13.469 3.834 2.68-3.03 5.876-4.907 9.313-7l3.363-2.062C299.147 210 299.147 210 302 210"/><path fill="#A38750" d="m274 142 3 1-4 26-2-1c-.633-2.547-.633-2.547-1.125-5.75l-.508-3.172c-.328-2.754-.552-5.312-.367-8.078 1.5-1.812 1.5-1.812 3-3l-1-3h3z"/><path fill="#B2955E" d="M285 126c2.125.375 2.125.375 4 1h-3l1.75 2.992 2.25 3.883 1.156 1.973C294 140.773 294 140.773 294 143c-4.915-1.319-9.364-3.375-13-7v-3h2l-.125-2.375C283 128 283 128 285 126"/><path fill="#6FB7CE" d="m351 140 2 2-4 5 7 1c-1.583 4.274-4.506 6.265-8 9l-.687-1.875c-1.692-2.74-3.305-3.175-6.313-4.125l2.188-2.125c2.81-2.803 5.307-5.798 7.812-8.875"/><path fill="#7ABBD0" d="M304 140h1l1 17h2l.438 2.375c.44 2.59.44 2.59 1.562 4.625l2 1a466 466 0 0 1-3.375 2.5l-1.898 1.406C305 170 305 170 303 170z"/><path fill="#EBD38E" d="M255.688 122.813 259 123c1.125 1.688 1.125 1.688 2 4-1.04 3.686-2.97 6.77-5 10l2 2a351 351 0 0 1-3.875 2.563l-2.18 1.44L250 144l-2-1 1.625-1.812c3.316-4.45 5.798-9.284 8.375-14.188l-9-1c3-3 3-3 6.688-3.187"/><path fill="#9F7D3F" d="m275 129 4 2-3 1 .5 2.125c.535 3.074.777 5.763.5 8.875-3 2-3 2-6 2l2 1-2 6-2-1c.566-4.69 1.185-9.345 2-14l3-1v-3c.306-1.34.635-2.675 1-4"/><path fill="#E3F4F2" d="m113.332 202.02 3.48 1.792 3.52 1.77L123 207l-3 1-1 2c-4.86-.607-8.74-2.728-13-5l1 6h-2c-.312-3.312-.312-3.312 0-7 3.12-2.84 4.243-3.232 8.332-1.98"/><path fill="#FCFAE4" d="M225 122c7.238.481 14.391 1.436 21.563 2.5l2.706.396 2.547.385 2.296.346C256 126 256 126 258 127a101 101 0 0 1-2 6l-2 1 1-6-3.937.125c-4.938-.008-9.303-.89-14.063-2.125l-3.234-.8q-4.387-1.088-8.766-2.2z"/><path fill="#A07E3F" d="m288 115 10 2-2 1v2a91 91 0 0 1-4 4l2 1-9 1v-2l-2-1v-3c4.875 1.875 4.875 1.875 6 3l2-4-5-1z"/><path fill="#DDBE70" d="M263 118q.33 2.936.625 5.875l.352 3.305L264 130l-2 2-2-1v-5c-2.332-1.206-4.496-2.165-7-3 1.658-2.705 2.459-3.842 5.563-4.75C261 118 261 118 263 118"/><path fill="#7CB9CD" d="m282 237-1 4h5v1q-3.562.72-7.125 1.438l-2.016.408A307 307 0 0 1 265 246c3.914-4.803 10.725-9 17-9"/><path fill="#F1DD9A" d="M269 81h1v15l3-3c-.46 4.954-1.835 7.242-5 11-.778 2.182-.778 2.182-1 4l-4 1v-2h3l-.062-3.312C266 100 266 100 267 97a362 362 0 0 0 1.063-8.187l.275-2.272q.334-2.77.662-5.541"/><path fill="#7CB8CB" d="m81 207 8 5-1 2h-3l2 4q-2.44-.676-4.875-1.375l-2.742-.773C77 215 77 215 75 213c2.709-1.354 5.01-1.065 8-1v-2l-3-1z"/><path fill="#E2C581" d="M277 102h1l1 5 4-3 2 1c-1 3-1 3-2 4h2l.313 1.875c.562 2.49.562 2.49 3.687 4.125l-7-1v-3l-1.937.563L278 112l-1-1-2 2z"/><path fill="#C5A35C" d="m278 113 2 1v2l4-2v3h-2l-1 5-2.375.313c-2.955.463-2.955.463-4.625 3.687l-1-6 3-2c1.205-2.552 1.205-2.552 2-5"/><path fill="#FAF5D6" d="m256 110 3 4c-2.458 2.458-3.582 2.41-6.98 2.816l-3.03.377-3.178.37q-3.084.376-6.167.753l-2.943.352c-3.242.398-6.471.852-9.702 1.332 1-2 1-2 3.414-2.852 8.741-2.105 16.652-2.482 25.586-2.148z"/><path fill="#80BCCF" d="M28 126h1c2.62 12.936 2.62 12.936 2 18-2.023 2.191-2.023 2.191-4 4q-.04-4.094-.062-8.187l-.026-2.33c-.017-3.968.102-7.609 1.088-11.483"/><path fill="#77B5C8" d="M98 125h2c1.064 5.514 1.123 7.841-1.277 13.035-1.303 3.54-1.298 7.165-1.41 10.903l-.104 2.36c-.082 1.9-.147 3.801-.209 5.702h-1c-.223-10.906.06-21.23 2-32"/><path fill="#79B6CA" d="m233 167 2 1-6 4 3 5-4 2v-4h-8v-2l2.59-1.059 3.347-1.379 3.34-1.37c2.589-.936 2.589-.936 3.723-2.192"/><path fill="#EDF4EA" d="m275 83 5 1-.125 3c-.017 4.238.983 7.932 2.125 12-3-1-3-1-5-4-1.665-4.162-2.213-7.525-2-12"/><path fill="#AF9057" d="M296 118h3l.375 1.875c.497 2.316.497 2.316 2.625 4.125-4.177 1.591-7.532 2.213-12 2a125 125 0 0 1 4-6h2z"/><path fill="#F6F3DB" d="m294 99 4 1-1 3-3-1v4l-3 2-1 3h-2v2l5 1c-2.606.93-3.642 1.15-6.25.063L285 113l1-3h3l.25-2.125c.92-3.528 2.631-5.936 4.75-8.875"/><path fill="#E3C679" d="m259 117 2 1-1 2h-4a141 141 0 0 0-5 5h-2c.75-5.75.75-5.75 3-8 3.167-1.056 3.964-.98 7 0"/><path fill="#E0F2F1" d="M368 135c0 4.098-1.625 6.785-4 10-1.933 1.896-3.942 3.63-6.027 5.355-2.49 2.076-4.718 4.32-6.973 6.645l-2-1 2.633-2.562C357.59 147.59 363.258 141.909 368 135"/><path fill="#ECD693" d="M247 96c4.417 1.388 7.083 3.397 10 7-.25 2.125-.25 2.125-1 4l1 3h-2c-1.691-2.3-1.691-2.3-3.562-5.312l-1.88-2.989C248 99 248 99 247 96"/><path fill="#F3FAF1" d="M294 102h2c-.095.626-.19 1.253-.29 1.898-.11.818-.22 1.635-.335 2.477l-.352 2.46L295 111l2 2h-3l-1 2-5-2v-2h2l.313-1.937L291 107l3-1z"/><path fill="#EBD896" d="m240 118-1 3c-1.75.625-1.75.625-4 1l-2.312.688c-3.583.416-6.3-.559-9.688-1.688v-1c11.522-2.296 11.522-2.296 17-2"/><path fill="#5FACC7" d="M141 166c2.343.256 4.678.593 7 1l1 2h-2v4h-4v-2h-2z"/><path fill="#E4F5F5" d="m309 166 2 1-3 4 2 1c-6.75 4-6.75 4-9 4 0-2 0-2 1.5-3.625L304 171h-2c1.393-2.786 3.16-2.935 6-4z"/><path fill="#D4C18F" d="M254 134h3l-1 3 2 2a351 351 0 0 1-3.875 2.563l-2.18 1.44L250 144l-2-1 1.875-2.25c1.73-2.238 2.986-4.187 4.125-6.75"/><path fill="#CCAC6E" d="M265 130h4v3l2 1-5 5v-5l-5 2 1-3h2z"/><path fill="#EECF75" d="m273 102-1 10-2-4-1-1v3l-5-1 3-1q.514-1.996 1-4c3-2 3-2 5-2"/><path fill="#DAEFF1" d="M37 141c2.291 2.19 3.698 4.095 5 7l-2 1c-.465 1.895-.465 1.895-.625 4.063L39 157h-1c-.853-3.674-1.108-7.045-1.062-10.812l.027-2.958z"/><path fill="#7CBACC" d="M374 101c1.315 3.659.655 6.08-.437 9.75l-.872 2.984L372 116l-4 1c1.748-5.467 3.658-10.758 6-16"/><path fill="#7FB6C8" d="M232 296h4v3l13 2v2c-5.877.49-10.096-.63-15-4z"/><path fill="#B18C46" d="M273 122h1c.353 2.968.542 5.156-1.113 7.734-1.242 1.47-2.56 2.873-3.887 4.266l-1-2 1-2-2-1 1-3 4-1z"/><path fill="#ECD58F" d="m255 116-1 2-3 1-2 2-7-3v-1c4.41-1.102 8.484-1.077 13-1"/><path fill="#E5F8F9" d="M339 217a1505 1505 0 0 1-5.875 3l-3.305 1.688C327 223 327 223 325 223c1-3 1-3 2.926-4.203l2.387-1.047 2.363-1.078c2.57-.743 3.838-.56 6.324.328"/><path fill="#5DAAC4" d="M30 144h1q.079 2.124.125 4.25l.07 2.39c-.212 2.567-.908 4.152-2.195 6.36-1.308-3.923-1.197-6.86-1-11z"/><path fill="#D0B264" d="M263 118v4l-5-1-1 3-4-1c1.658-2.705 2.459-3.842 5.563-4.75C261 118 261 118 263 118"/><path fill="#C9A85F" d="M278 109c0 3.784-1.103 5.749-3 9-3.3 3-3.3 3-6 3 1.444-3.239 3.258-5.62 5.625-8.25l1.914-2.14z"/><path fill="#E9CC81" d="m256 103 6 2-1 2h-2v-2h-2l1.563 1.188L260 108c-.312 2.688-.312 2.688-1 5-2-1-2-1-3.187-3.312-.85-2.808-.812-3.99.187-6.688"/><path fill="#64A7BF" d="m281 93 1 2 8-1c-2.25 2.563-2.25 2.563-5 5-2.312-.187-2.312-.187-4-1z"/><path fill="#E8DBA9" d="M271 71h2l1 12-4-2z"/><path fill="#E0F3F5" d="m342 184 2 2-11 8-1-3c5.625-4 5.625-4 9-4z"/><path fill="#B7A376" d="M290 136c2.5 2.174 3.436 3.73 4 7-3.775-1.09-6.47-1.908-9-5z"/><path fill="#C7B486" d="M296 95c0 3.396-.522 4.066-2.5 6.688l-1.406 1.886L291 105l-4-4z"/><path fill="#82B9CB" d="m170 89-1 3 5 2-2 1c-1.673-.65-3.339-1.32-5-2a127 127 0 0 0-6-1c3.072-2.73 4.904-3.341 9-3"/><path fill="#7CB7CA" d="m112 190 13 6c-3.29 1.097-4.713.8-8 0v-2l-5-2z"/><path fill="#7CBACD" d="m351 140 2 2-2.312 2.25c-2.127 2.176-3.944 4.272-5.688 6.75l-4-1 1.68-1.426 2.195-1.887 2.18-1.863c2.137-1.865 2.137-1.865 3.945-4.824"/><path fill="#F9F3D4" d="M246 125q2.438.212 4.875.438c.905.08 1.81.162 2.742.246C256 126 256 126 258 127a101 101 0 0 1-2 6l-2 1 1-7-3.375.125C248 127 248 127 246 125"/><path fill="#E4F6F6" d="m220 104 2 1c-3.126 3.394-5.565 5.606-10 7zm-10 8 2 1-4 2z"/><path fill="#80B9CB" d="M352 208c-1.396 3.375-2.86 5.116-6 7-2.75.688-2.75.688-5 1 7.714-8 7.714-8 11-8"/><path fill="#6EADC0" d="m313 126-1 4-8-1-1 2v-3c3.62-1.316 6.096-2 10-2"/><path fill="#BB9D63" d="m285 126 4 1h-3l1 4-4-1zm-2 5 2 2-4 3v-3h2z"/><path fill="#E4F6F7" d="M281 188q-2.434 1.256-4.875 2.5l-2.742 1.406C271 193 271 193 269 193v-2a205 205 0 0 1 3.75-2.062l2.11-1.16c2.501-.91 3.673-.661 6.14.222"/><path fill="#D7EFF1" d="M98 172h1l1 12-6-3 3-2c.736-3.568.736-3.568 1-7"/><path fill="#C7A65D" d="M266 120c2.938.813 2.938.813 6 2l1 3c-3.2 1.6-5.723.032-9-1v-2h2z"/><path fill="#81B4C3" d="M104 240c5.875 3.625 5.875 3.625 7 7l-8-2 2-1z"/><path fill="#58ADCA" d="M110 208h3l-1 7-3-1c-.812-1.937-.812-1.937-1-4z"/><path fill="#DEF3F5" d="m356 199 3 1-7 8-1-3h2v-3c1.5-1.687 1.5-1.687 3-3"/><path fill="#E6F5F2" d="M348 157c0 3 0 3-1 6-1.848.73-1.848.73-4.062 1.188l-2.223.48L339 165c2.853-2.932 5.65-5.643 9-8"/><path fill="#E3F3F4" d="M143.188 160.375 145 161l-2.25 1.125c-3.225 2.199-4.758 4.555-6.75 7.875l-1-2c3.511-8.427 3.511-8.427 8.188-7.625"/><path fill="#ECE5CE" d="M277 138h1l1 11-3 2z"/><path fill="#EFEFE4" d="M309 123v2l4 1c-4.69 1.117-7.538.806-12-1 3.088-1.765 4.233-2 8-2"/><path fill="#FAF4CE" d="m257 102 9 1v4c-3.483-.645-6.062-2.041-9-4z"/><path fill="#79B4C6" d="M304 158h1v9l2 1-4 2c-.082-4.161.018-7.947 1-12"/><path fill="#B19D72" d="m270 157 3 1v11l-2-1c-.414-2.504-.414-2.504-.625-5.562l-.227-3.067z"/><path fill="#E1CA8B" d="M255.688 122.813 259 123l-1 4-9-1c3-3 3-3 6.688-3.187"/><path fill="#F2EFDC" d="M294 113h3v2l7-1v3l-9-1z"/><path fill="#E5DAAC" d="M247 96c3.375 1.186 5.647 2.276 8 5h-3l-1 2c-4-4.75-4-4.75-4-7"/><path fill="#7DAFBC" d="M277 242c-2.855 1.903-4.42 2.462-7.687 3.125l-2.45.508L265 246c3.59-4.786 6.417-4.372 12-4"/><path fill="#D7EAEE" d="M373 126h1v12h-1l-1-6-2 1c1.875-5.875 1.875-5.875 3-7"/><path fill="#7FBCCC" d="m189 116-2 4h-9c8-4 8-4 11-4"/><path fill="#CDEDF1" d="m34 173 6 8-1 2c-1.035-.9-2.053-1.82-3.062-2.75l-1.723-1.547C33 177 33 177 33.316 174.797z"/><path fill="#85BDCE" d="m325 162 1 3-8 4-1-2z"/><path fill="#F1D885" d="M265 111h2c.688 2.313.688 2.313 1 5-1.437 1.813-1.437 1.813-3 3-.981-3.053-.981-4.947 0-8"/><path fill="#76B5CA" d="M354 218c1 3 1 3 .063 5.188L353 225h-2v-6z"/><path fill="#67B4CE" d="M302 211c2.75.25 2.75.25 5 1-2.762 2.762-5.207 2.579-9 3 1.688-2.062 1.688-2.062 4-4"/><path fill="#79B6CA" d="M31 163c2.537 1.269 2.786 2.497 4 5l2 2-3 3c-3-6.625-3-6.625-3-10"/><path fill="#A98A4D" d="M284 131h4v5c-4 0-4 0-6-1z"/><path fill="#DAF0F3" d="M99 253c7.508-.37 7.508-.37 10 1.5l1 1.5c-2 1-2 1-4.164.441l-2.461-.878-2.477-.872L99 254z"/><path fill="#DFF3F4" d="M323 236c-4.778 2.914-7.551 3.199-13 2v-1a311 311 0 0 1 4.25-1.062l2.39-.598c2.464-.355 4.016-.109 6.36.66"/><path fill="#7FBCCD" d="m231 185 1 3-4 4-3-1z"/><path fill="#88B6C4" d="m156 115 9 3-3 1v2c-3.736-1.245-4.188-2.634-6-6"/><path fill="#73ABBD" d="M304 108h2l2 6-5-1z"/><path fill="#7EBAC9" d="m226 223 2 1c-3.5 4.875-3.5 4.875-8 6z"/><path fill="#81B7C9" d="M100 195h5v2l4 1v2c-3.46-1.25-6.147-2.675-9-5"/><path fill="#BFE6EA" d="m158 180 8 3-3 1-1 2a91 91 0 0 1-4-4z"/><path fill="#5EAAC4" d="m107 171 2 2c-.353 3.442-1.046 5.069-3 8-.125-6.625-.125-6.625 1-10"/><path fill="#E5F6F5" d="m62 170 8 6-3 1-1-3h-3z"/><path fill="#E3F3F5" d="M360 166h2c-1.443 3.366-3.333 5.51-6 8 .597-3.342 1.736-5.464 4-8"/><path fill="#C5A765" d="m258 132 3 4-1 2h-5z"/><path fill="#D3B369" d="m262 125 2 3-2 4-2-1c.875-4.875.875-4.875 2-6"/><path fill="#E9F7F9" d="M231 86c-7.5 5-7.5 5-10 5 1-3 1-3 2.75-4.187 2.55-.921 4.56-.962 7.25-.813"/></svg>