<?xml version="1.0" encoding="UTF-8"?>
<svg version="1.1" xmlns="http://www.w3.org/2000/svg" width="400" height="400">
<path d="M0 0 C132 0 264 0 400 0 C400 92.73 400 185.46 400 281 C268 281 136 281 0 281 C0 188.27 0 95.54 0 0 Z " fill="#FCFDFC" transform="translate(0,36)"/>
<path d="M0 0 C0.66 0 1.32 0 2 0 C2.33 3.96 2.66 7.92 3 12 C4.98 12.33 6.96 12.66 9 13 C9 13.66 9 14.32 9 15 C9.680625 15.061875 10.36125 15.12375 11.0625 15.1875 C14.96847175 16.26787517 18.03255349 18.23995567 21 21 C21.33 21.99 21.66 22.98 22 24 C23.32 24 24.64 24 26 24 C24.29231921 27.55038751 22.25801816 30.79398379 20.12109375 34.09765625 C18.84878807 36.10493004 18.84878807 36.10493004 18 39 C17.01 39 16.02 39 15 39 C15 39.99 15 40.98 15 42 C15.70495605 42.14099121 16.40991211 42.28198242 17.13623047 42.42724609 C18.11994629 42.62398926 19.10366211 42.82073242 20.1171875 43.0234375 C21.2 43.24 22.2828125 43.4565625 23.3984375 43.6796875 C25.11933594 44.02386719 25.11933594 44.02386719 26.875 44.375 C27.98359375 44.59671875 29.0921875 44.8184375 30.234375 45.046875 C33.48958333 45.69791667 36.74479167 46.34895833 40 47 C41.00708008 47.20141602 42.01416016 47.40283203 43.05175781 47.61035156 C45.36783854 48.07356771 47.68391927 48.53678385 50 49 C46.96474514 51.02350324 45.80573798 51.32124018 42.3125 51.625 C41.50425781 51.69976562 40.69601562 51.77453125 39.86328125 51.8515625 C39.24839844 51.90054688 38.63351562 51.94953125 38 52 C38 52.66 38 53.32 38 54 C39.32 54 40.64 54 42 54 C43.67517352 61.79948453 44.36493635 69.27959049 44.375 77.25 C44.39949219 78.28640625 44.42398437 79.3228125 44.44921875 80.390625 C44.48176061 88.89489687 42.3040245 93.36996938 37 100 C49.08042775 96.28294531 59.17551706 87.70359874 69 80 C69.78117187 79.38769531 70.56234375 78.77539062 71.3671875 78.14453125 C87.42714037 64.74218624 96.58898488 46.12968278 104 27 C104.99 27 105.98 27 107 27 C107.81474962 29.8952173 108.62687322 32.79112828 109.4375 35.6875 C109.78264648 36.91243164 109.78264648 36.91243164 110.13476562 38.16210938 C116.06733138 59.39897518 112.40406128 79.72690288 102 99 C103.4540625 97.7625 103.4540625 97.7625 104.9375 96.5 C108 94 108 94 109 94 C110.54969613 108.32607981 103.79528006 124.11380361 95.0625 135.1875 C93.22560497 137.41310128 91.3825124 139.59602959 89.3984375 141.69140625 C85.93647862 145.38477949 83.94247462 149.07928476 81.8125 153.6875 C74.17610539 169.96862362 59.40383059 180.4950327 43 187 C36.14011099 189.22377592 29.00443626 190.69983128 21.83984375 191.48046875 C14.48858578 192.28196861 14.48858578 192.28196861 8.7578125 196.50390625 C6.97695208 199.60260338 5.48850117 202.75236109 4 206 C1.82931509 209.45663569 -0.56472132 212.72584662 -3 216 C-3.68964844 216.95390625 -4.37929688 217.9078125 -5.08984375 218.890625 C-10.76851394 226.35573098 -16.17452271 231.09604663 -25.625 232.5625 C-35.82770116 230.86204981 -42.70610613 223.80080756 -48.68212891 215.72753906 C-52.58013523 210.23494253 -56.30960604 204.63342066 -60 199 C-60.66 198.01 -61.32 197.02 -62 196 C-61.82531656 192.59367293 -61.22771261 191.25531414 -58.9375 188.6875 C-58.298125 188.130625 -57.65875 187.57375 -57 187 C-52.97568657 188.34143781 -51.63275396 190.99565214 -49.375 194.375 C-48.76398438 195.26058594 -48.76398438 195.26058594 -48.140625 196.1640625 C-46.37786869 198.7556645 -44.99596426 201.01210722 -44 204 C-43.34 204 -42.68 204 -42 204 C-41.73960937 203.41089844 -41.47921875 202.82179688 -41.2109375 202.21484375 C-36.2908064 193.21576525 -25.9036131 189.86982764 -16.70703125 186.95703125 C-12.40811276 185.84719455 -8.14020986 185.13437111 -3.75 184.5 C-2.44651611 184.30555298 -2.44651611 184.30555298 -1.11669922 184.10717773 C4.07267027 183.35385192 9.25507176 182.75679354 14.47680664 182.2824707 C32.95346314 180.58772699 50.28842138 175.06506018 64 162 C65.03362802 160.69256323 66.04565328 159.36638213 67 158 C65.96875 158.5775 64.9375 159.155 63.875 159.75 C51.41335864 165.89801237 37.25692203 167.48600107 23.6875 169.625 C20.87790839 170.07434098 18.06873738 170.52613295 15.25996399 170.9805603 C13.52856566 171.26002277 11.79665304 171.53632628 10.06413269 171.80874634 C4.65798929 172.67293214 -0.66918395 173.75317762 -6 175 C-0.09743051 167.75593745 10.13501002 165.05186676 18.75 162.4375 C19.71373535 162.137229 20.6774707 161.83695801 21.67041016 161.52758789 C26.88387821 159.91360435 32.11424052 158.38874399 37.375 156.9375 C58.65775981 150.93662627 80.20831668 142.05064486 91.69140625 122.0546875 C93.1621219 119.38624287 94.59780283 116.70494773 96 114 C95.55011719 114.35191406 95.10023438 114.70382813 94.63671875 115.06640625 C80.02513283 126.28131088 64.3319476 134.23762598 46.90429688 140.0234375 C43.25527797 141.25041091 39.6201222 142.51559301 35.984375 143.78125 C33.8034439 144.53860153 31.62234226 145.29545954 29.44116211 146.05209351 C27.98799015 146.55639275 26.53502545 147.06128964 25.08227539 147.56680298 C23.01951789 148.28351829 20.95528194 148.99580909 18.890625 149.70703125 C17.08126465 150.33315308 17.08126465 150.33315308 15.23535156 150.97192383 C12.48658354 151.84538158 9.83808314 152.51080233 7 153 C13.76742528 145.57399978 24.24071629 141.29609161 33.1875 137.125 C54.5196646 127.17037339 77.82363524 115.39955267 91 95 C91.51046875 94.25492187 92.0209375 93.50984375 92.546875 92.7421875 C98.5927569 83.43392378 102.19669477 72.32566623 102.0625 61.1875 C102.04896484 59.72376953 102.04896484 59.72376953 102.03515625 58.23046875 C102.02355469 57.49441406 102.01195312 56.75835937 102 56 C101.731875 56.53367188 101.46375 57.06734375 101.1875 57.6171875 C91.92041203 75.23684818 76.40328808 89.10915915 60 100 C59.35708008 100.42812988 58.71416016 100.85625977 58.05175781 101.29736328 C46.4568863 108.90631913 34.15484407 115.16041409 21.82539368 121.46632385 C8.45725019 128.30458709 -4.75645904 135.26134946 -17 144 C-17.59989746 144.42474609 -18.19979492 144.84949219 -18.81787109 145.28710938 C-39.78969159 160.22709504 -55.95277977 177.79331239 -70.53417969 198.890625 C-92.11863511 229.95153353 -92.11863511 229.95153353 -103.47265625 232.5703125 C-109.2394359 232.98031538 -113.17733121 231.46102643 -117.73046875 227.984375 C-132.60057623 214.9826287 -141.11874534 196.9142259 -149.04907227 179.11181641 C-149.74057349 177.57613332 -150.44910401 176.04808353 -151.16772461 174.52490234 C-154.99084164 166.35501441 -157.93936288 157.9604898 -160.86914062 149.4375 C-161.24619141 148.36242187 -161.62324219 147.28734375 -162.01171875 146.1796875 C-162.34647217 145.20757324 -162.68122559 144.23545898 -163.02612305 143.23388672 C-163.78565573 140.84001388 -163.78565573 140.84001388 -166 140 C-166 137.69 -166 135.38 -166 133 C-164.68 132.34 -163.36 131.68 -162 131 C-166.11473678 127.43605476 -170.47437291 125.02700654 -175.25 122.5 C-197.93965336 110.16408036 -219.92250511 93.67360888 -233 71 C-234.29828137 86.97607347 -226.77225242 101.59986427 -216.921875 113.69921875 C-208.87020915 123.09559011 -198.73467451 130.07844064 -188.421875 136.75390625 C-181.66751597 141.1397813 -175.41797664 146.02633345 -170 152 C-170 152.66 -170 153.32 -170 154 C-183.44895742 148.67531693 -196.83342044 142.88713922 -209.625 136.125 C-210.27952148 135.78073975 -210.93404297 135.43647949 -211.60839844 135.08178711 C-215.99804552 132.70511332 -219.98345977 129.96336001 -224 127 C-219.09710253 139.12822005 -210.49765272 147.06240621 -199 153 C-198.42000244 153.30357422 -197.84000488 153.60714844 -197.24243164 153.91992188 C-192.94494998 156.12819423 -188.58810372 158.01283479 -184.09716797 159.7902832 C-175.65344445 163.15322921 -167.6577453 166.6113976 -161 173 C-160.67 173.99 -160.34 174.98 -160 176 C-172.09774401 173.66969685 -184.08254133 171.12916513 -196 168 C-186.96959879 175.89425529 -178.20376891 180.10250859 -166.8125 183.4375 C-158.59551195 185.85702643 -153.00712304 189.00807143 -148 196 C-148.33 196.66 -148.66 197.32 -149 198 C-186.07191261 189.56821399 -186.07191261 189.56821399 -198 180 C-198.63421875 179.52820313 -199.2684375 179.05640625 -199.921875 178.5703125 C-206.60576767 173.3355824 -211.00572087 166.27667592 -214.625 158.6875 C-216.56474548 154.63796641 -218.64065962 152.0394032 -222 149 C-231.64720998 139.39818866 -238.88021267 124.71593952 -240.30859375 111.046875 C-240.3125 108.5625 -240.3125 108.5625 -240 105 C-237.06553114 106.41791563 -234.56667591 107.98332607 -232 110 C-232.721875 108.96875 -233.44375 107.9375 -234.1875 106.875 C-244.17818924 90.83880847 -246.38598912 70.65332252 -242.6875 52.375 C-241.54589191 47.65635322 -240.17012871 43.34025742 -238 39 C-235.70957681 41.86075263 -234.1129466 44.65924349 -232.6171875 48 C-227.63521893 58.90654566 -222.93401833 68.91067725 -215 78 C-214.24460937 78.91394531 -213.48921875 79.82789063 -212.7109375 80.76953125 C-201.37499037 93.9701863 -186.82108798 103.16806675 -172 112 C-172.47901608 105.93666489 -173.14873017 99.95153123 -174.0625 93.9375 C-177.09371209 71.51108873 -175.09024532 49.46079821 -161.25 30.875 C-153.13488332 20.50568424 -142.20325004 12.33564257 -129 10 C-105.98879956 7.828714 -87.43460425 13.88879897 -69.4375 28.59375 C-67.10033597 30.22763218 -67.10033597 30.22763218 -64.44921875 29.91796875 C-61.73215554 28.89961173 -60.0200135 27.68867939 -57.8125 25.8125 C-44.27599665 14.85758519 -30.86198577 9.60501697 -13.5 9.875 C-12.39140625 9.88402344 -11.2828125 9.89304687 -10.140625 9.90234375 C-7.42698892 9.92573716 -4.71346524 9.96160191 -2 10 C-1.34 6.7 -0.68 3.4 0 0 Z " fill="#FBFCFB" transform="translate(271,71)"/>
<path d="M0 0 C4.0228386 3.49401149 4.52262316 7.72572433 5.6875 12.75 C5.90736572 13.69286865 6.12723145 14.6357373 6.35375977 15.60717773 C10.78592301 35.80157541 6.7338592 54.96842476 -3 73 C-1.5459375 71.7625 -1.5459375 71.7625 -0.0625 70.5 C3 68 3 68 4 68 C5.54969613 82.32607981 -1.20471994 98.11380361 -9.9375 109.1875 C-11.77439503 111.41310128 -13.6174876 113.59602959 -15.6015625 115.69140625 C-19.06352138 119.38477949 -21.05752538 123.07928476 -23.1875 127.6875 C-30.82389461 143.96862362 -45.59616941 154.4950327 -62 161 C-68.85988901 163.22377592 -75.99556374 164.69983128 -83.16015625 165.48046875 C-90.51141422 166.28196861 -90.51141422 166.28196861 -96.2421875 170.50390625 C-98.02304792 173.60260338 -99.51149883 176.75236109 -101 180 C-103.17068491 183.45663569 -105.56472132 186.72584662 -108 190 C-108.68964844 190.95390625 -109.37929688 191.9078125 -110.08984375 192.890625 C-115.76851394 200.35573098 -121.17452271 205.09604663 -130.625 206.5625 C-140.82770116 204.86204981 -147.70610613 197.80080756 -153.68212891 189.72753906 C-157.58013523 184.23494253 -161.30960604 178.63342066 -165 173 C-165.66 172.01 -166.32 171.02 -167 170 C-166.82531656 166.59367293 -166.22771261 165.25531414 -163.9375 162.6875 C-163.298125 162.130625 -162.65875 161.57375 -162 161 C-157.97568657 162.34143781 -156.63275396 164.99565214 -154.375 168.375 C-153.96765625 168.96539062 -153.5603125 169.55578125 -153.140625 170.1640625 C-151.37786869 172.7556645 -149.99596426 175.01210722 -149 178 C-148.34 178 -147.68 178 -147 178 C-146.73960937 177.41089844 -146.47921875 176.82179688 -146.2109375 176.21484375 C-141.2908064 167.21576525 -130.9036131 163.86982764 -121.70703125 160.95703125 C-117.40811276 159.84719455 -113.14020986 159.13437111 -108.75 158.5 C-107.44651611 158.30555298 -107.44651611 158.30555298 -106.11669922 158.10717773 C-100.92732973 157.35385192 -95.74492824 156.75679354 -90.52319336 156.2824707 C-72.04653686 154.58772699 -54.71157862 149.06506018 -41 136 C-39.96637198 134.69256323 -38.95434672 133.36638213 -38 132 C-39.03125 132.5775 -40.0625 133.155 -41.125 133.75 C-53.58664136 139.89801237 -67.74307797 141.48600107 -81.3125 143.625 C-84.12209161 144.07434098 -86.93126262 144.52613295 -89.74003601 144.9805603 C-91.47143434 145.26002277 -93.20334696 145.53632628 -94.93586731 145.80874634 C-100.34201071 146.67293214 -105.66918395 147.75317762 -111 149 C-105.09743051 141.75593745 -94.86498998 139.05186676 -86.25 136.4375 C-85.28626465 136.137229 -84.3225293 135.83695801 -83.32958984 135.52758789 C-78.11612179 133.91360435 -72.88575948 132.38874399 -67.625 130.9375 C-46.34224019 124.93662627 -24.79168332 116.05064486 -13.30859375 96.0546875 C-11.8378781 93.38624287 -10.40219717 90.70494773 -9 88 C-9.44988281 88.35191406 -9.89976562 88.70382813 -10.36328125 89.06640625 C-24.97486717 100.28131088 -40.6680524 108.23762598 -58.09570312 114.0234375 C-61.74472203 115.25041091 -65.3798778 116.51559301 -69.015625 117.78125 C-71.1965561 118.53860153 -73.37765774 119.29545954 -75.55883789 120.05209351 C-77.01200985 120.55639275 -78.46497455 121.06128964 -79.91772461 121.56680298 C-81.98048211 122.28351829 -84.04471806 122.99580909 -86.109375 123.70703125 C-87.31561523 124.1244458 -88.52185547 124.54186035 -89.76464844 124.97192383 C-92.51341646 125.84538158 -95.16191686 126.51080233 -98 127 C-91.23257472 119.57399978 -80.75928371 115.29609161 -71.8125 111.125 C-50.4803354 101.17037339 -27.17636476 89.39955267 -14 69 C-13.48953125 68.25492187 -12.9790625 67.50984375 -12.453125 66.7421875 C-6.4072431 57.43392378 -2.80330523 46.32566623 -2.9375 35.1875 C-2.95103516 33.72376953 -2.95103516 33.72376953 -2.96484375 32.23046875 C-2.97644531 31.49441406 -2.98804688 30.75835937 -3 30 C-3.268125 30.53367187 -3.53625 31.06734375 -3.8125 31.6171875 C-13.07958797 49.23684818 -28.59671192 63.10915915 -45 74 C-45.96437988 74.64219482 -45.96437988 74.64219482 -46.94824219 75.29736328 C-58.5431137 82.90631913 -70.84515593 89.16041409 -83.17460632 95.46632385 C-96.54274981 102.30458709 -109.75645904 109.26134946 -122 118 C-122.59989746 118.42474609 -123.19979492 118.84949219 -123.81787109 119.28710938 C-144.78969159 134.22709504 -160.95277977 151.79331239 -175.53417969 172.890625 C-197.11863511 203.95153353 -197.11863511 203.95153353 -208.47265625 206.5703125 C-214.2394359 206.98031538 -218.17733121 205.46102643 -222.73046875 201.984375 C-237.60252186 188.98092753 -246.1190654 170.91062891 -254.05151367 153.10668945 C-254.7351641 151.58822882 -255.43531035 150.07715691 -256.14575195 148.57104492 C-259.66116101 141.05693563 -262.53781731 133.3768286 -265.3125 125.5625 C-265.77121261 124.29742747 -266.23019571 123.03245298 -266.68945312 121.76757812 C-267.11806641 120.56681641 -267.54667969 119.36605469 -267.98828125 118.12890625 C-268.37540283 117.04681885 -268.76252441 115.96473145 -269.16137695 114.84985352 C-270 112 -270 112 -270 108 C-258.91049327 111.43246637 -258.91049327 111.43246637 -257.03613281 114.65942383 C-256.22845696 116.75163691 -255.56539412 118.84705351 -254.9375 121 C-254.43590947 122.55715959 -253.93070126 124.11315851 -253.421875 125.66796875 C-253.18017578 126.41997559 -252.93847656 127.17198242 -252.68945312 127.94677734 C-251.53610847 131.38149 -250.02275221 134.60761073 -248.46875 137.875 C-247.26109267 140.44448368 -246.1049982 143.02369917 -244.96875 145.625 C-237.57219113 162.5035409 -229.14703337 181.59588114 -215 194 C-211.05877821 194.69924903 -208.66446614 195.07671766 -205.26806641 192.87963867 C-201.01363787 189.14813213 -197.56402797 185.20362113 -194.25 180.625 C-193.74049805 179.9345459 -193.23099609 179.2440918 -192.70605469 178.53271484 C-189.11658338 173.63405094 -185.66687074 168.6449506 -182.25 163.625 C-174.98887388 152.95846201 -166.84085741 143.3739091 -158 134 C-157.3090625 133.26652344 -156.618125 132.53304687 -155.90625 131.77734375 C-135.97323051 111.23162899 -110.33484738 97.75533199 -85.17797852 84.78979492 C-47.76461944 65.43805747 -18.14139179 44.63955974 -2.34765625 4.32421875 C-1 1 -1 1 0 0 Z " fill="#68B3CC" transform="translate(376,97)"/>
<path d="M0 0 C2.91042503 2.13849758 5.76578034 4.3086254 8.5625 6.59375 C10.89966403 8.22763218 10.89966403 8.22763218 13.55078125 7.91796875 C16.26784446 6.89961173 17.9799865 5.68867939 20.1875 3.8125 C33.078693 -6.62017361 46.37655827 -12.42307551 63 -12.125 C63.96550781 -12.11597656 64.93101562 -12.10695313 65.92578125 -12.09765625 C68.28396326 -12.07430791 70.6420158 -12.03844539 73 -12 C72.67 -8.7 72.34 -5.4 72 -2 C70.25976562 -1.96132812 70.25976562 -1.96132812 68.484375 -1.921875 C48.40573904 -1.28384212 33.79982009 5.74148816 18.85498047 18.89257812 C14.98630499 22.2632582 10.98117205 25.25281066 6.6875 28.0625 C5.59824219 28.77535156 4.50898438 29.48820312 3.38671875 30.22265625 C-4.83985053 34.53994463 -13.84086074 35.10025487 -23 34 C-29.42722953 31.6134487 -33.82851205 28.05465882 -37 22 C-35.51965236 22.47550561 -34.04074979 22.95551216 -32.5625 23.4375 C-31.73878906 23.70433594 -30.91507813 23.97117188 -30.06640625 24.24609375 C-28 25 -28 25 -27 26 C-17.89546398 26.9429146 -8.68012255 25.75483757 -0.9140625 20.62109375 C0.90518937 19.16686954 0.90518937 19.16686954 3 17 C-0.53330512 13.18827309 -4.12308598 10.45607845 -8.6875 7.9375 C-9.30109375 7.59388428 -9.9146875 7.25026855 -10.546875 6.89624023 C-23.55724764 -0.2591252 -37.50646025 -3.40020222 -52.2734375 -0.31640625 C-58.33757117 1.73045119 -63.21614948 4.78614018 -68 9 C-68.60585937 9.51304688 -69.21171875 10.02609375 -69.8359375 10.5546875 C-79.57281856 19.44118593 -84.99228288 33.53381653 -85.90234375 46.5546875 C-85.93457031 47.36164063 -85.96679688 48.16859375 -86 49 C-86.06316406 49.99257812 -86.12632813 50.98515625 -86.19140625 52.0078125 C-86.62355382 64.47039083 -84.44303032 76.80994114 -82 89 C-81.94769226 89.63956131 -81.89538452 90.27912262 -81.8414917 90.93806458 C-81.37973147 94.35288688 -80.82213946 96.33480586 -78.08572388 98.54884338 C-75.42386281 100.06708599 -72.7248518 101.37107317 -69.9375 102.64453125 C-68.91760986 103.13982834 -67.89771973 103.63512543 -66.84692383 104.14543152 C-63.57680647 105.72815351 -60.29013288 107.27187839 -57 108.8125 C-52.72263249 110.84721102 -48.4530673 112.89770613 -44.1875 114.95703125 C-42.62485413 115.70923698 -42.62485413 115.70923698 -41.03063965 116.47663879 C-27.09336883 123.27194246 -14.13731657 131.35328885 -2 141 C-1.02546875 141.77085937 -0.0509375 142.54171875 0.953125 143.3359375 C3.3111393 145.21312765 5.66019203 147.10020016 8 149 C6.64978174 153.41889613 4.73884332 155.34345343 1 158 C0.37996094 157.39414063 -0.24007812 156.78828125 -0.87890625 156.1640625 C-18.31519526 139.66684582 -40.07431892 129.23193067 -61.53692627 118.95651245 C-96.26693028 102.29565698 -134.97774046 83.71436125 -155 49 C-156.29828137 64.97607347 -148.77225242 79.59986427 -138.921875 91.69921875 C-130.87020915 101.09559011 -120.73467451 108.07844064 -110.421875 114.75390625 C-103.66751597 119.1397813 -97.41797664 124.02633345 -92 130 C-92 130.66 -92 131.32 -92 132 C-105.44895742 126.67531693 -118.83342044 120.88713922 -131.625 114.125 C-132.27952148 113.78073975 -132.93404297 113.43647949 -133.60839844 113.08178711 C-137.99804552 110.70511332 -141.98345977 107.96336001 -146 105 C-141.09710253 117.12822005 -132.49765272 125.06240621 -121 131 C-120.42000244 131.30357422 -119.84000488 131.60714844 -119.24243164 131.91992188 C-114.94494998 134.12819423 -110.58810372 136.01283479 -106.09716797 137.7902832 C-97.65344445 141.15322921 -89.6577453 144.6113976 -83 151 C-82.67 151.99 -82.34 152.98 -82 154 C-94.09774401 151.66969685 -106.08254133 149.12916513 -118 146 C-108.96959879 153.89425529 -100.20376891 158.10250859 -88.8125 161.4375 C-80.59551195 163.85702643 -75.00712304 167.00807143 -70 174 C-70.33 174.66 -70.66 175.32 -71 176 C-108.07191261 167.56821399 -108.07191261 167.56821399 -120 158 C-120.63421875 157.52820313 -121.2684375 157.05640625 -121.921875 156.5703125 C-128.60576767 151.3355824 -133.00572087 144.27667592 -136.625 136.6875 C-138.56474548 132.63796641 -140.64065962 130.0394032 -144 127 C-153.64720998 117.39818866 -160.88021267 102.71593952 -162.30859375 89.046875 C-162.3125 86.5625 -162.3125 86.5625 -162 83 C-159.06553114 84.41791563 -156.56667591 85.98332607 -154 88 C-154.721875 86.96875 -155.44375 85.9375 -156.1875 84.875 C-166.17818924 68.83880847 -168.38598912 48.65332252 -164.6875 30.375 C-163.54589191 25.65635322 -162.17012871 21.34025742 -160 17 C-157.70957681 19.86075263 -156.1129466 22.65924349 -154.6171875 26 C-149.63521893 36.90654566 -144.93401833 46.91067725 -137 56 C-136.24460937 56.91394531 -135.48921875 57.82789063 -134.7109375 58.76953125 C-123.37499037 71.9701863 -108.82108798 81.16806675 -94 90 C-94.47901608 83.93666489 -95.14873017 77.95153123 -96.0625 71.9375 C-99.09371209 49.51108873 -97.09024532 27.46079821 -83.25 8.875 C-61.83674957 -18.48637555 -27.56890975 -17.17808971 0 0 Z " fill="#69B3CC" transform="translate(193,93)"/>
<path d="M0 0 C0.886875 0.2475 1.77375 0.495 2.6875 0.75 C3.6775 3.72 3.6775 3.72 4.6875 6.75 C-13.33804797 21.6879745 -33.11406119 32.40910785 -53.88098145 42.96876526 C-66.12658295 49.20858418 -78.11172448 55.75560823 -89.3125 63.75 C-89.91239746 64.17474609 -90.51229492 64.59949219 -91.13037109 65.03710938 C-112.10219159 79.97709504 -128.26527977 97.54331239 -142.84667969 118.640625 C-164.43113511 149.70153353 -164.43113511 149.70153353 -175.78515625 152.3203125 C-181.5519359 152.73031538 -185.48983121 151.21102643 -190.04296875 147.734375 C-204.91502186 134.73092753 -213.4315654 116.66062891 -221.36401367 98.85668945 C-222.0476641 97.33822882 -222.74781035 95.82715691 -223.45825195 94.32104492 C-226.97366101 86.80693563 -229.85031731 79.1268286 -232.625 71.3125 C-233.08371261 70.04742747 -233.54269571 68.78245298 -234.00195312 67.51757812 C-234.43056641 66.31681641 -234.85917969 65.11605469 -235.30078125 63.87890625 C-235.68790283 62.79681885 -236.07502441 61.71473145 -236.47387695 60.59985352 C-237.3125 57.75 -237.3125 57.75 -237.3125 53.75 C-226.22299327 57.18246637 -226.22299327 57.18246637 -224.34863281 60.40942383 C-223.54095696 62.50163691 -222.87789412 64.59705351 -222.25 66.75 C-221.74840947 68.30715959 -221.24320126 69.86315851 -220.734375 71.41796875 C-220.49267578 72.16997559 -220.25097656 72.92198242 -220.00195312 73.69677734 C-218.84860847 77.13149 -217.33525221 80.35761073 -215.78125 83.625 C-214.57359267 86.19448368 -213.4174982 88.77369917 -212.28125 91.375 C-204.88469113 108.2535409 -196.45953337 127.34588114 -182.3125 139.75 C-178.37127821 140.44924903 -175.97696614 140.82671766 -172.58056641 138.62963867 C-168.32613787 134.89813213 -164.87652797 130.95362113 -161.5625 126.375 C-161.05299805 125.6845459 -160.54349609 124.9940918 -160.01855469 124.28271484 C-156.42908338 119.38405094 -152.97937074 114.3949506 -149.5625 109.375 C-142.30137388 98.70846201 -134.15335741 89.1239091 -125.3125 79.75 C-124.6215625 79.01652344 -123.930625 78.28304687 -123.21875 77.52734375 C-103.28573051 56.98162899 -77.64734738 43.50533199 -52.49047852 30.53979492 C-36.27611758 22.15305651 -19.54480013 13.31588185 -5.57421875 1.41796875 C-3.3125 -0.25 -3.3125 -0.25 0 0 Z " fill="#69B2CB" transform="translate(343.3125,151.25)"/>
<path d="M0 0 C0.99 0.495 0.99 0.495 2 1 C1.45683993 6.31471818 0.12802292 10.79984334 -2.0625 15.6875 C-2.37268066 16.38375488 -2.68286133 17.08000977 -3.00244141 17.79736328 C-7.95797534 28.58177287 -14.81383625 37.46854991 -23 46 C-23.68191406 46.73347656 -24.36382812 47.46695313 -25.06640625 48.22265625 C-34.13475996 57.7169209 -44.6230941 62.89377879 -57.96044922 63.47485352 C-75.72948041 63.69393542 -89.19698788 55.6649666 -102 44 C-116.66519733 29.60353665 -116.66519733 29.60353665 -117.25 21.5625 C-117.1675 20.716875 -117.085 19.87125 -117 19 C-112.94834887 19.33763759 -109.93014538 19.88738024 -106.35546875 21.84765625 C-101.82452075 24.18502507 -97.18031432 25.7083299 -92.3125 27.1875 C-91.07016602 27.57711914 -91.07016602 27.57711914 -89.80273438 27.97460938 C-74.05789204 32.85311537 -55.31767307 33.62385862 -40 27 C-38.88109375 26.5875 -37.7621875 26.175 -36.609375 25.75 C-22.16629578 20.15092083 -11.02622915 10.62233797 0 0 Z " fill="#6CB3CB" transform="translate(258,147)"/>
<path d="M0 0 C0.66 0 1.32 0 2 0 C2.495 5.94 2.495 5.94 3 12 C4.98 12.33 6.96 12.66 9 13 C9 13.66 9 14.32 9 15 C9.680625 15.061875 10.36125 15.12375 11.0625 15.1875 C14.96847175 16.26787517 18.03255349 18.23995567 21 21 C21.495 22.485 21.495 22.485 22 24 C23.32 24 24.64 24 26 24 C24.29231921 27.55038751 22.25801816 30.79398379 20.12109375 34.09765625 C18.84878807 36.10493004 18.84878807 36.10493004 18 39 C17.01 39 16.02 39 15 39 C15 39.99 15 40.98 15 42 C15.70495605 42.14099121 16.40991211 42.28198242 17.13623047 42.42724609 C18.11994629 42.62398926 19.10366211 42.82073242 20.1171875 43.0234375 C21.2 43.24 22.2828125 43.4565625 23.3984375 43.6796875 C24.54570312 43.90914062 25.69296875 44.13859375 26.875 44.375 C28.53789062 44.70757812 28.53789062 44.70757812 30.234375 45.046875 C33.48958333 45.69791667 36.74479167 46.34895833 40 47 C41.00708008 47.20141602 42.01416016 47.40283203 43.05175781 47.61035156 C46.52587891 48.30517578 46.52587891 48.30517578 50 49 C46.63953532 51.24030979 44.4286573 51.62132827 40.46875 52.2890625 C39.18355469 52.50820312 37.89835937 52.72734375 36.57421875 52.953125 C35.90567871 53.06333984 35.23713867 53.17355469 34.54833984 53.28710938 C32.50614348 53.62398658 30.4659168 53.97119314 28.42578125 54.3203125 C18.45763579 56 18.45763579 56 15 56 C15.5775 56.98742187 16.155 57.97484375 16.75 58.9921875 C17.500226 60.28632735 18.25021368 61.58060537 19 62.875 C19.3815625 63.52597656 19.763125 64.17695313 20.15625 64.84765625 C23 69.7734375 23 69.7734375 23 72 C16.73581469 70.51637716 12.08486495 66.75837844 7 63 C6.89042969 64.01835937 6.78085937 65.03671875 6.66796875 66.0859375 C5.48014837 76.79547929 3.86175939 87.38797146 2 98 C1.01 97.505 1.01 97.505 0 97 C-0.68603516 94.30371094 -0.68603516 94.30371094 -1.2890625 90.734375 C-1.50820313 89.45175781 -1.72734375 88.16914063 -1.953125 86.84765625 C-2.06333984 86.17492676 -2.17355469 85.50219727 -2.28710938 84.80908203 C-2.62161037 82.77065614 -2.96975217 80.73493742 -3.3203125 78.69921875 C-5.1487679 67.82643935 -5.1487679 67.82643935 -5 63 C-5.88042969 63.55429688 -6.76085937 64.10859375 -7.66796875 64.6796875 C-8.84101486 65.41166827 -10.0141993 66.14342739 -11.1875 66.875 C-12.0547168 67.42220703 -12.0547168 67.42220703 -12.93945312 67.98046875 C-16.20278033 70.0085252 -19.38059362 71.70492051 -23 73 C-22.61328125 72.35933594 -22.2265625 71.71867187 -21.828125 71.05859375 C-21.30734375 70.19363281 -20.7865625 69.32867187 -20.25 68.4375 C-19.73953125 67.59058594 -19.2290625 66.74367188 -18.703125 65.87109375 C-16.76365413 62.60157289 -14.87901104 59.30460855 -13 56 C-13.81154541 55.88930176 -14.62309082 55.77860352 -15.45922852 55.66455078 C-19.16105822 55.15659642 -22.86176558 54.64087104 -26.5625 54.125 C-27.83931641 53.95097656 -29.11613281 53.77695313 -30.43164062 53.59765625 C-31.67236328 53.42363281 -32.91308594 53.24960938 -34.19140625 53.0703125 C-35.32779541 52.91320801 -36.46418457 52.75610352 -37.63500977 52.59423828 C-41.20601912 51.96361819 -44.53302966 51.05223224 -48 50 C-48 49.67 -48 49.34 -48 49 C-44.20926911 48.34859544 -40.41726343 47.70491743 -36.625 47.0625 C-35.03365234 46.78889648 -35.03365234 46.78889648 -33.41015625 46.50976562 C-26.95260051 45.4203007 -20.52647745 44.54737608 -14 44 C-14 43.01 -14 42.02 -14 41 C-14 40.34 -14 39.68 -14 39 C-14.66 39 -15.32 39 -16 39 C-17.69140625 36.69921875 -17.69140625 36.69921875 -19.5625 33.6875 C-20.18253906 32.70136719 -20.80257812 31.71523437 -21.44140625 30.69921875 C-23 28 -23 28 -24 25 C-19.63104896 26.3652972 -16.56314602 28.77286201 -13.00390625 31.53515625 C-10.48634516 33.37547868 -7.83895307 34.72247112 -5 36 C-5.020625 34.906875 -5.04125 33.81375 -5.0625 32.6875 C-5 29 -5 29 -4 26 C-3.6595462 23.47949749 -3.34886725 20.96406398 -3.0625 18.4375 C-2.32688485 12.22063773 -1.38097871 6.11156534 0 0 Z " fill="#E2C477" transform="translate(271,71)"/>
<path d="M0 0 C0 0.66 0 1.32 0 2 C1.65 2 3.3 2 5 2 C5 2.66 5 3.32 5 4 C7.64 4.33 10.28 4.66 13 5 C9.48101101 7.34599266 6.26762939 7.82676016 2.1875 8.5 C-5.05806085 9.68133327 -5.05806085 9.68133327 -12 12 C-13.80702997 15.13062404 -13.80702997 15.13062404 -14.828125 17.5390625 C-20.21060518 28.84227088 -29.81809846 43.34730076 -41.69140625 48.29296875 C-46.51881587 49.771414 -50.21050918 49.54479258 -54.8125 47.625 C-67.17769135 40.68438493 -74.46345798 27.5046014 -82 16 C-82.66 15.01 -83.32 14.02 -84 13 C-83.82531656 9.59367293 -83.22771261 8.25531414 -80.9375 5.6875 C-79.9784375 4.8521875 -79.9784375 4.8521875 -79 4 C-74.97568657 5.34143781 -73.63275396 7.99565214 -71.375 11.375 C-70.96765625 11.96539062 -70.5603125 12.55578125 -70.140625 13.1640625 C-68.37786869 15.7556645 -66.99596426 18.01210722 -66 21 C-65.34 21 -64.68 21 -64 21 C-63.73960937 20.41089844 -63.47921875 19.82179688 -63.2109375 19.21484375 C-58.29498376 10.22340578 -47.91539513 6.8683906 -38.72265625 3.96484375 C-34.33883487 2.82863821 -29.97504558 2.05022622 -25.5 1.375 C-24.19627441 1.17716919 -24.19627441 1.17716919 -22.86621094 0.9753418 C-15.19222766 -0.11300182 -7.74041097 -0.31665318 0 0 Z " fill="#69B2CC" transform="translate(293,254)"/>
<path d="M0 0 C0.99 0.495 0.99 0.495 2 1 C1.45683993 6.31471818 0.12802292 10.79984334 -2.0625 15.6875 C-2.37268066 16.38375488 -2.68286133 17.08000977 -3.00244141 17.79736328 C-7.95797534 28.58177287 -14.81383625 37.46854991 -23 46 C-23.68191406 46.73347656 -24.36382812 47.46695313 -25.06640625 48.22265625 C-34.24210044 57.82930281 -44.95297724 63.04812362 -58.42382812 63.36791992 C-68.22661511 63.40037207 -68.22661511 63.40037207 -72 61 C-71.6875 59.125 -71.6875 59.125 -71 57 C-67.35083224 54.56722149 -65.46934601 54.77330309 -61.125 54.6875 C-45.98170582 54.01614055 -35.44267306 46.90897619 -25.12109375 36.390625 C-21.98633284 32.8575243 -19.43467766 29.03870059 -17 25 C-17.72703125 25.44730469 -18.4540625 25.89460938 -19.203125 26.35546875 C-39.03593404 38.28058085 -39.03593404 38.28058085 -48 37 C-50.8125 36 -50.8125 36 -53 35 C-53.66 35 -54.32 35 -55 35 C-57.3754917 34.84049456 -59.7504308 34.67269594 -62.125 34.5 C-64.04699219 34.36078125 -64.04699219 34.36078125 -66.0078125 34.21875 C-66.99523437 34.1465625 -67.98265625 34.074375 -69 34 C-69 33.67 -69 33.34 -69 33 C-67.49373047 32.85304688 -67.49373047 32.85304688 -65.95703125 32.703125 C-56.91305758 31.7464439 -48.57908992 30.15576755 -40 27 C-38.86949219 26.59007812 -37.73898438 26.18015625 -36.57421875 25.7578125 C-22.15737569 20.08087986 -11.03586124 10.63161723 0 0 Z " fill="#68B1CA" transform="translate(258,147)"/>
<path d="M0 0 C1.73443359 0.35771484 1.73443359 0.35771484 3.50390625 0.72265625 C5.29634766 1.08037109 5.29634766 1.08037109 7.125 1.4453125 C10.04479275 2.02927105 12.96253805 2.62187034 15.87890625 3.22265625 C12.51844157 5.46296604 10.30756355 5.84398452 6.34765625 6.51171875 C4.41986328 6.84042969 4.41986328 6.84042969 2.453125 7.17578125 C1.78458496 7.28599609 1.11604492 7.39621094 0.42724609 7.50976562 C-1.61495027 7.84664283 -3.65517695 8.19384939 -5.6953125 8.54296875 C-15.66345796 10.22265625 -15.66345796 10.22265625 -19.12109375 10.22265625 C-18.25484375 11.70378906 -18.25484375 11.70378906 -17.37109375 13.21484375 C-16.62086775 14.5089836 -15.87088007 15.80326162 -15.12109375 17.09765625 C-14.73953125 17.74863281 -14.35796875 18.39960938 -13.96484375 19.0703125 C-11.12109375 23.99609375 -11.12109375 23.99609375 -11.12109375 26.22265625 C-17.38527906 24.73903341 -22.0362288 20.98103469 -27.12109375 17.22265625 C-27.28544922 18.75019531 -27.28544922 18.75019531 -27.453125 20.30859375 C-28.64094538 31.01813554 -30.25933436 41.61062771 -32.12109375 52.22265625 C-32.78109375 51.89265625 -33.44109375 51.56265625 -34.12109375 51.22265625 C-34.80712891 48.52636719 -34.80712891 48.52636719 -35.41015625 44.95703125 C-35.62929688 43.67441406 -35.8484375 42.39179688 -36.07421875 41.0703125 C-36.18443359 40.39758301 -36.29464844 39.72485352 -36.40820312 39.03173828 C-36.74270412 36.99331239 -37.09084592 34.95759367 -37.44140625 32.921875 C-39.26986165 22.0490956 -39.26986165 22.0490956 -39.12109375 17.22265625 C-40.00796875 17.88265625 -40.89484375 18.54265625 -41.80859375 19.22265625 C-45.10221361 21.21125692 -46.40361248 21.66000699 -50.12109375 21.22265625 C-49.66734375 20.35640625 -49.21359375 19.49015625 -48.74609375 18.59765625 C-47.25842716 15.50788718 -46.13345065 12.49334777 -45.12109375 9.22265625 C-47.45323523 8.01637617 -49.61751514 7.05718245 -52.12109375 6.22265625 C-51.05859375 4.28515625 -51.05859375 4.28515625 -49.12109375 2.22265625 C-45.43359375 1.47265625 -45.43359375 1.47265625 -42.12109375 1.22265625 C-41.79109375 4.19265625 -41.46109375 7.16265625 -41.12109375 10.22265625 C-40.13109375 10.55265625 -39.14109375 10.88265625 -38.12109375 11.22265625 C-38.12109375 10.56265625 -38.12109375 9.90265625 -38.12109375 9.22265625 C-37.33734375 9.11953125 -36.55359375 9.01640625 -35.74609375 8.91015625 C-32.79064194 8.44670603 -32.79064194 8.44670603 -31.12109375 5.22265625 C-30.46109375 5.22265625 -29.80109375 5.22265625 -29.12109375 5.22265625 C-27.45143924 4.90462682 -25.78430857 4.57280674 -24.12109375 4.22265625 C-24.01796875 3.60390625 -23.91484375 2.98515625 -23.80859375 2.34765625 C-21.13707548 -5.90976385 -6.04377638 -1.19509702 0 0 Z " fill="#B19155" transform="translate(305.12109375,116.77734375)"/>
<path d="M0 0 C0.99 0.495 0.99 0.495 2 1 C-7.66361328 15.31543858 -18.04094177 25.98680303 -35 31 C-47.3816749 32.5837026 -60.93870375 28.07728139 -70.79150391 20.64941406 C-74.64369607 17.56156991 -78.34275049 14.31511972 -82 11 C-81.67 10.34 -81.34 9.68 -81 9 C-80.40574219 9.26554688 -79.81148437 9.53109375 -79.19921875 9.8046875 C-78.37035156 10.15789062 -77.54148438 10.51109375 -76.6875 10.875 C-75.88699219 11.22304687 -75.08648437 11.57109375 -74.26171875 11.9296875 C-65.82138982 14.69932837 -57.39572658 15.33841399 -48.5625 15.25 C-47.5511499 15.24105713 -46.5397998 15.23211426 -45.49780273 15.22290039 C-28.41810446 14.95721314 -13.73449336 10.41532413 0 0 Z " fill="#F5FBF9" transform="translate(240,171)"/>
<path d="M0 0 C0 3.60456167 -0.88680402 4.6048998 -2.9375 7.5 C-4.76048843 10.0857992 -5.99291644 11.97874931 -7 15 C-7.99 15 -8.98 15 -10 15 C-10 15.99 -10 16.98 -10 18 C-9.01 18.66 -8.02 19.32 -7 20 C-9.31 20.66 -11.62 21.32 -14 22 C-14.495 24.475 -14.495 24.475 -15 27 C-15.78375 27.103125 -16.5675 27.20625 -17.375 27.3125 C-20.33045181 27.77595022 -20.33045181 27.77595022 -22 31 C-24.33333333 31 -26.66666667 31 -29 31 C-29 31.66 -29 32.32 -29 33 C-30.32 33 -31.64 33 -33 33 C-33 29.7 -33 26.4 -33 23 C-33.66 23 -34.32 23 -35 23 C-35.33 23.66 -35.66 24.32 -36 25 C-37.32 25 -38.64 25 -40 25 C-40.495 26.485 -40.495 26.485 -41 28 C-40.38125 28.103125 -39.7625 28.20625 -39.125 28.3125 C-37 29 -37 29 -35 32 C-36.06444184 35.67716271 -37.97149242 38.77282884 -40 42 C-39.34 42.66 -38.68 43.32 -38 44 C-39.28524261 44.86380259 -40.57842419 45.71580369 -41.875 46.5625 C-42.95394531 47.27599609 -42.95394531 47.27599609 -44.0546875 48.00390625 C-45.01761719 48.49697266 -45.01761719 48.49697266 -46 49 C-46.66 48.67 -47.32 48.34 -48 48 C-47.46375 47.401875 -46.9275 46.80375 -46.375 46.1875 C-44.21719838 43.29150309 -42.55821252 40.47327999 -40.8515625 37.30078125 C-40.31611816 36.30860596 -39.78067383 35.31643066 -39.22900391 34.29418945 C-38.82343262 33.53710693 -38.41786133 32.78002441 -38 32 C-38.81154541 31.88930176 -39.62309082 31.77860352 -40.45922852 31.66455078 C-44.16105822 31.15659642 -47.86176558 30.64087104 -51.5625 30.125 C-53.47772461 29.86396484 -53.47772461 29.86396484 -55.43164062 29.59765625 C-56.67236328 29.42363281 -57.91308594 29.24960938 -59.19140625 29.0703125 C-60.32779541 28.91320801 -61.46418457 28.75610352 -62.63500977 28.59423828 C-66.20601912 27.96361819 -69.53302966 27.05223224 -73 26 C-73 25.67 -73 25.34 -73 25 C-69.20926911 24.34859544 -65.41726343 23.70491743 -61.625 23.0625 C-60.56410156 22.88009766 -59.50320312 22.69769531 -58.41015625 22.50976562 C-52.64500189 21.53711688 -46.97678019 20.73899743 -41.13427734 20.43920898 C-38.48818208 19.89467394 -37.10669638 18.65098497 -35 17 C-31.75 16.3125 -31.75 16.3125 -29 16 C-28.25 18.1875 -28.25 18.1875 -28 21 C-29.9375 23.8125 -29.9375 23.8125 -32 26 C-31.01 25.67 -30.02 25.34 -29 25 C-28.34 25.33 -27.68 25.66 -27 26 C-25.5393715 23.35261084 -25 22.10551666 -25 19 C-24.71372955 16.32643843 -24.34968449 13.66634425 -24 11 C-23.34 11 -22.68 11 -22 11 C-21.34 9.68 -20.68 8.36 -20 7 C-19.34 7 -18.68 7 -18 7 C-17.505 9.475 -17.505 9.475 -17 12 C-14.91598726 10.56347677 -12.83277356 9.12581793 -10.75 7.6875 C-9.87021484 7.08131836 -9.87021484 7.08131836 -8.97265625 6.46289062 C-5.93657405 4.36492371 -2.93149825 2.24216079 0 0 Z " fill="#E6CA7E" transform="translate(296,95)"/>
<path d="M0 0 C-4.83594088 9.63524585 -10.68961823 20.05720312 -20 26 C-23.5 26.75 -23.5 26.75 -27 26 C-30.63143396 23.20658926 -32.70224131 20.35344858 -33.6875 15.875 C-32.51582927 10.97528606 -29.18086447 8.86216526 -25.25 5.9921875 C-17.79075338 1.41981277 -8.71079758 -0.69686381 0 0 Z " fill="#F7FBFA" transform="translate(269,266)"/>
<path d="M0 0 C1.82038443 7.48889692 2.33637382 14.62035423 2.3125 22.3125 C2.32861328 23.37017578 2.34472656 24.42785156 2.36132812 25.51757812 C2.36197266 26.53916016 2.36261719 27.56074219 2.36328125 28.61328125 C2.36626221 29.52891846 2.36924316 30.44455566 2.37231445 31.38793945 C1.81885751 35.27084822 0.14087243 37.97092798 -2.75390625 40.58203125 C-3.35074219 40.98808594 -3.94757813 41.39414063 -4.5625 41.8125 C-5.16191406 42.23144531 -5.76132812 42.65039062 -6.37890625 43.08203125 C-8 44 -8 44 -10 44 C-10 30.14 -10 16.28 -10 2 C-4 0 -4 0 0 0 Z " fill="#6DB5CE" transform="translate(313,126)"/>
<path d="M0 0 C132 0 264 0 400 0 C400 0.33 400 0.66 400 1 C268 1 136 1 0 1 C0 0.67 0 0.34 0 0 Z " fill="#FFFFFF" transform="translate(0,318)"/>
<path d="M0 0 C132 0 264 0 400 0 C400 0.33 400 0.66 400 1 C268 1 136 1 0 1 C0 0.67 0 0.34 0 0 Z " fill="#FFFFFF" transform="translate(0,34)"/>
<path d="M0 0 C0 3.60456167 -0.88680402 4.6048998 -2.9375 7.5 C-4.76048843 10.0857992 -5.99291644 11.97874931 -7 15 C-7.99 15 -8.98 15 -10 15 C-10 15.99 -10 16.98 -10 18 C-9.01 18.66 -8.02 19.32 -7 20 C-9.31 20.66 -11.62 21.32 -14 22 C-14.33 23.65 -14.66 25.3 -15 27 C-15.78375 27.103125 -16.5675 27.20625 -17.375 27.3125 C-20.33045181 27.77595022 -20.33045181 27.77595022 -22 31 C-25.33333333 30.33333333 -28.66666667 29.66666667 -32 29 C-32 28.34 -32 27.68 -32 27 C-31.34 27 -30.68 27 -30 27 C-29.67 26.34 -29.34 25.68 -29 25 C-28.34 25.33 -27.68 25.66 -27 26 C-25.5393715 23.35261084 -25 22.10551666 -25 19 C-24.71372955 16.32643843 -24.34968449 13.66634425 -24 11 C-23.34 11 -22.68 11 -22 11 C-21.34 9.68 -20.68 8.36 -20 7 C-19.34 7 -18.68 7 -18 7 C-17.67 8.65 -17.34 10.3 -17 12 C-14.91598726 10.56347677 -12.83277356 9.12581793 -10.75 7.6875 C-10.16347656 7.28337891 -9.57695312 6.87925781 -8.97265625 6.46289062 C-5.93657405 4.36492371 -2.93149825 2.24216079 0 0 Z " fill="#D6B469" transform="translate(296,95)"/>
<path d="M0 0 C2.625 0 2.625 0 6 1 C8.3678213 3.43028181 10.17582457 6.14804431 12 9 C12.61875 9.94875 13.2375 10.8975 13.875 11.875 C15 14 15 14 15 16 C7.74139037 19.98052786 -1.37459622 16.6397006 -9 15 C-8.67 13.68 -8.34 12.36 -8 11 C-7.01 11 -6.02 11 -5 11 C-4.9175 10.29875 -4.835 9.5975 -4.75 8.875 C-3.82972275 5.34727053 -2.11873023 2.93888386 0 0 Z " fill="#E5F1EB" transform="translate(294,99)"/>
<path d="M0 0 C2.475 0.495 2.475 0.495 5 1 C5 1.66 5 2.32 5 3 C6.0209375 3.0928125 6.0209375 3.0928125 7.0625 3.1875 C10.96847175 4.26787517 14.03255349 6.23995567 17 9 C17.33 9.99 17.66 10.98 18 12 C18.66 12.66 19.32 13.32 20 14 C17.35675132 15.83708226 14.70998489 17.66902914 12.0625 19.5 C11.30775391 20.02464844 10.55300781 20.54929687 9.77539062 21.08984375 C9.05673828 21.58613281 8.33808594 22.08242187 7.59765625 22.59375 C6.93258057 23.05458984 6.26750488 23.51542969 5.58227539 23.99023438 C4 25 4 25 3 25 C2.49420286 21.95919579 1.99519241 18.91753354 1.5 15.875 C1.35691406 15.0190625 1.21382813 14.163125 1.06640625 13.28125 C0.34304266 8.80328495 -0.17918816 4.55436565 0 0 Z " fill="#F6F5E1" transform="translate(275,83)"/>
<path d="M0 0 C0 1.65 0 3.3 0 5 C-0.99 5.495 -0.99 5.495 -2 6 C-5.26091601 15.21752258 -4.1325322 26.48672954 -3 36 C-3.99 36.495 -3.99 36.495 -5 37 C-5.12375 36.195625 -5.2475 35.39125 -5.375 34.5625 C-5.58125 33.716875 -5.7875 32.87125 -6 32 C-6.66 31.67 -7.32 31.34 -8 31 C-8.06058594 29.91203125 -8.12117188 28.8240625 -8.18359375 27.703125 C-8.66987024 19.12332911 -9.22485071 10.55962728 -10 2 C-6.38026598 0.68373308 -3.90432869 0 0 0 Z " fill="#63B0CA" transform="translate(313,126)"/>
<path d="M0 0 C0.33 2.97 0.66 5.94 1 9 C1.99 9.33 2.98 9.66 4 10 C4.33 9.34 4.66 8.68 5 8 C5.12375 9.134375 5.2475 10.26875 5.375 11.4375 C5.58125 12.613125 5.7875 13.78875 6 15 C6.66 15.33 7.32 15.66 8 16 C6.35 17.65 4.7 19.3 3 21 C3 19.35 3 17.7 3 16 C2.113125 16.66 1.22625 17.32 0.3125 18 C-2.98111986 19.98860067 -4.28251873 20.43735074 -8 20 C-7.54625 19.13375 -7.0925 18.2675 -6.625 17.375 C-5.13733341 14.28523093 -4.0123569 11.27069152 -3 8 C-5.33214148 6.79371992 -7.49642139 5.8345262 -10 5 C-8.34220923 2.29518348 -7.54112366 1.15837766 -4.4375 0.25 C-2 0 -2 0 0 0 Z " fill="#BF9D55" transform="translate(263,118)"/>
<path d="M0 0 C3.11227195 0 5.94152152 0.45627049 9 1 C7.6875 3.9375 7.6875 3.9375 6 7 C5.01 7.33 4.02 7.66 3 8 C1.35179805 10.60242414 1 11.86248779 1 15 C0.34 15.66 -0.32 16.32 -1 17 C-1.60713803 18.85483454 -2.14131052 20.73421385 -2.625 22.625 C-2.88539063 23.62789062 -3.14578125 24.63078125 -3.4140625 25.6640625 C-3.60742188 26.43492187 -3.80078125 27.20578125 -4 28 C-4.33 28 -4.66 28 -5 28 C-5.22197585 25.89722877 -5.42713637 23.79267698 -5.625 21.6875 C-5.74101562 20.51574219 -5.85703125 19.34398437 -5.9765625 18.13671875 C-6 15 -6 15 -4 12 C-4.33 11.34 -4.66 10.68 -5 10 C-4.67 9.34 -4.34 8.68 -4 8 C-4.66 7.67 -5.32 7.34 -6 7 C-5.67 6.01 -5.34 5.02 -5 4 C-3.66666667 3.66666667 -2.33333333 3.33333333 -1 3 C-0.67 2.01 -0.34 1.02 0 0 Z " fill="#BB9957" transform="translate(273,122)"/>
<path d="M0 0 C0.66 0 1.32 0 2 0 C2.3893647 2.60275329 2.76193662 5.20606349 3.125 7.8125 C3.23714844 8.55048828 3.34929687 9.28847656 3.46484375 10.04882812 C4.2265625 15.66015625 4.2265625 15.66015625 2 19 C1.69246891 21.11429795 1.69246891 21.11429795 1.625 23.375 C1.24365946 27.73216871 -0.0188717 29.73939093 -3 33 C-3.77833534 35.18214568 -3.77833534 35.18214568 -4 37 C-5.98 37.495 -5.98 37.495 -8 38 C-8 37.34 -8 36.68 -8 36 C-7.01 36 -6.02 36 -5 36 C-5.020625 34.906875 -5.04125 33.81375 -5.0625 32.6875 C-5 29 -5 29 -4 26 C-3.6595462 23.47949749 -3.34886725 20.96406398 -3.0625 18.4375 C-2.32688485 12.22063773 -1.38097871 6.11156534 0 0 Z " fill="#ECD185" transform="translate(271,71)"/>
<path d="M0 0 C0 3.60456167 -0.88680402 4.6048998 -2.9375 7.5 C-4.76048843 10.0857992 -5.99291644 11.97874931 -7 15 C-7.99 15 -8.98 15 -10 15 C-10 15.99 -10 16.98 -10 18 C-9.01 18.66 -8.02 19.32 -7 20 C-9.31 19.67 -11.62 19.34 -14 19 C-14 18.01 -14 17.02 -14 16 C-14.639375 16.185625 -15.27875 16.37125 -15.9375 16.5625 C-16.618125 16.706875 -17.29875 16.85125 -18 17 C-18.33 16.67 -18.66 16.34 -19 16 C-19.66 16.66 -20.32 17.32 -21 18 C-20.34 14.37 -19.68 10.74 -19 7 C-18.67 7 -18.34 7 -18 7 C-17.67 8.65 -17.34 10.3 -17 12 C-14.91598726 10.56347677 -12.83277356 9.12581793 -10.75 7.6875 C-9.87021484 7.08131836 -9.87021484 7.08131836 -8.97265625 6.46289062 C-5.93657405 4.36492371 -2.93149825 2.24216079 0 0 Z " fill="#D3B573" transform="translate(296,95)"/>
<path d="M0 0 C0.78246094 -0.02578125 1.56492188 -0.0515625 2.37109375 -0.078125 C5.04181509 0.32176911 5.88227439 1.19699122 7.5625 3.25 C6.80324219 3.39695313 6.04398438 3.54390625 5.26171875 3.6953125 C-0.92541627 4.94153353 -0.92541627 4.94153353 -5.5625 8.875 C-6.63012598 12.99298591 -7.16425973 17.01006478 -7.4375 21.25 C-10.77811895 18.19986965 -11.36346126 16.00272724 -11.8125 11.4375 C-11.78795479 8.11162457 -11.17398282 6.38354084 -9.0625 3.8125 C-5.8149849 0.64230669 -4.39743515 0.08664897 0 0 Z " fill="#71B1C6" transform="translate(142.4375,155.75)"/>
<path d="M0 0 C3.85674376 1.4756237 5.21823735 3.47006893 7.25 7 C7.77078125 7.886875 8.2915625 8.77375 8.828125 9.6875 C10 12 10 12 10 14 C5.71 13.34 1.42 12.68 -3 12 C-4.25187763 5.74061187 -3.27679547 5.06413846 0 0 Z " fill="#69B0C7" transform="translate(298,100)"/>
<path d="M0 0 C4.78006608 1.91202643 8.79772953 4.02766235 13 7 C11.64486335 11.06540996 9.69203082 11.97300269 6 14 C3.625 13.75 3.625 13.75 2 13 C0.54815522 8.46298506 -0.23509196 4.81938524 0 0 Z " fill="#6AAFC8" transform="translate(279,85)"/>
<path d="M0 0 C0 0.66 0 1.32 0 2 C-0.99 2.66 -1.98 3.32 -3 4 C0.3 3.67 3.6 3.34 7 3 C4.212846 4.85810267 1.98675536 5.82069741 -1.1484375 6.91015625 C-2.15390625 7.26013672 -3.159375 7.61011719 -4.1953125 7.97070312 C-5.24460937 8.33099609 -6.29390625 8.69128906 -7.375 9.0625 C-8.4165625 9.42666016 -9.458125 9.79082031 -10.53125 10.16601562 C-15.00898152 11.71489846 -19.32829543 13.15947308 -24 14 C-21.3203602 10.9700186 -18.12428662 9.09299116 -14.6875 7 C-13.57761719 6.319375 -12.46773438 5.63875 -11.32421875 4.9375 C-2.85282258 0 -2.85282258 0 0 0 Z " fill="#7EB5C6" transform="translate(302,210)"/>
<path d="M0 0 C0.99 0.33 1.98 0.66 3 1 C1.68 9.58 0.36 18.16 -1 27 C-1.66 26.67 -2.32 26.34 -3 26 C-3.6328125 23.453125 -3.6328125 23.453125 -4.125 20.25 C-4.37636719 18.67992187 -4.37636719 18.67992187 -4.6328125 17.078125 C-4.96131246 14.32431686 -5.1847323 11.76612312 -5 9 C-3.5 7.1875 -3.5 7.1875 -2 6 C-2.33 5.01 -2.66 4.02 -3 3 C-2.01 3 -1.02 3 0 3 C0 2.01 0 1.02 0 0 Z " fill="#A38750" transform="translate(274,142)"/>
<path d="M0 0 C2.125 0.375 2.125 0.375 4 1 C3.01 1 2.02 1 1 1 C1.86625 2.48113281 1.86625 2.48113281 2.75 3.9921875 C3.500226 5.28632735 4.25021368 6.58060537 5 7.875 C5.3815625 8.52597656 5.763125 9.17695313 6.15625 9.84765625 C9 14.7734375 9 14.7734375 9 17 C4.0845485 15.68122033 -0.36441776 13.62482608 -4 10 C-4 9.01 -4 8.02 -4 7 C-3.34 7 -2.68 7 -2 7 C-2.04125 6.21625 -2.0825 5.4325 -2.125 4.625 C-2 2 -2 2 0 0 Z " fill="#B2955E" transform="translate(285,126)"/>
<path d="M0 0 C0.66 0.66 1.32 1.32 2 2 C0.68 3.65 -0.64 5.3 -2 7 C0.31 7.33 2.62 7.66 5 8 C3.4169423 12.2742558 0.49431596 14.26531794 -3 17 C-3.226875 16.38125 -3.45375 15.7625 -3.6875 15.125 C-5.37929835 12.38589791 -6.99244161 11.94975528 -10 11 C-9.278125 10.29875 -8.55625 9.5975 -7.8125 8.875 C-5.00176187 6.07229255 -2.50483774 3.07737208 0 0 Z " fill="#6FB7CE" transform="translate(351,140)"/>
<path d="M0 0 C0.33 0 0.66 0 1 0 C1.33 5.61 1.66 11.22 2 17 C2.66 17 3.32 17 4 17 C4.144375 17.78375 4.28875 18.5675 4.4375 19.375 C4.87798925 21.96421018 4.87798925 21.96421018 6 24 C6.66 24.33 7.32 24.66 8 25 C6.87926138 25.83905565 5.75325453 26.67107831 4.625 27.5 C3.99851562 27.9640625 3.37203125 28.428125 2.7265625 28.90625 C1 30 1 30 -1 30 C-0.67 20.1 -0.34 10.2 0 0 Z " fill="#7ABBD0" transform="translate(304,140)"/>
<path d="M0 0 C1.6396875 0.0928125 1.6396875 0.0928125 3.3125 0.1875 C4.4375 1.875 4.4375 1.875 5.3125 4.1875 C4.27275074 7.87388375 2.34229495 10.95828076 0.3125 14.1875 C0.9725 14.8475 1.6325 15.5075 2.3125 16.1875 C1.02725739 17.05130259 -0.26592419 17.90330369 -1.5625 18.75 C-2.28179687 19.22566406 -3.00109375 19.70132813 -3.7421875 20.19140625 C-4.38414062 20.52011719 -5.02609375 20.84882813 -5.6875 21.1875 C-6.3475 20.8575 -7.0075 20.5275 -7.6875 20.1875 C-7.15125 19.589375 -6.615 18.99125 -6.0625 18.375 C-2.74697503 13.92521649 -0.26429389 9.09199771 2.3125 4.1875 C-0.6575 3.8575 -3.6275 3.5275 -6.6875 3.1875 C-3.6875 0.1875 -3.6875 0.1875 0 0 Z " fill="#EBD38E" transform="translate(255.6875,122.8125)"/>
<path d="M0 0 C1.32 0.66 2.64 1.32 4 2 C3.01 2.33 2.02 2.66 1 3 C1.165 3.70125 1.33 4.4025 1.5 5.125 C2.03462591 8.19909899 2.27659749 10.88827828 2 14 C-1 16 -1 16 -4 16 C-3.34 16.33 -2.68 16.66 -2 17 C-2.66 18.98 -3.32 20.96 -4 23 C-4.66 22.67 -5.32 22.34 -6 22 C-5.43393721 17.30976546 -4.81462495 12.65499974 -4 8 C-3.01 7.67 -2.02 7.34 -1 7 C-1 6.01 -1 5.02 -1 4 C-0.6937566 2.66018514 -0.36548445 1.32488113 0 0 Z " fill="#9F7D3F" transform="translate(275,129)"/>
<path d="M0 0 C1.14855469 0.59167969 2.29710938 1.18335938 3.48046875 1.79296875 C5.22263672 2.66888672 5.22263672 2.66888672 7 3.5625 C7.88042969 4.03042969 8.76085937 4.49835938 9.66796875 4.98046875 C8.67796875 5.31046875 7.68796875 5.64046875 6.66796875 5.98046875 C6.33796875 6.64046875 6.00796875 7.30046875 5.66796875 7.98046875 C0.80833696 7.37301478 -3.07258305 5.25287908 -7.33203125 2.98046875 C-7.00203125 4.96046875 -6.67203125 6.94046875 -6.33203125 8.98046875 C-6.99203125 8.98046875 -7.65203125 8.98046875 -8.33203125 8.98046875 C-8.64453125 5.66796875 -8.64453125 5.66796875 -8.33203125 1.98046875 C-5.21218448 -0.85998876 -4.0887201 -1.25106207 0 0 Z " fill="#E3F4F2" transform="translate(113.33203125,202.01953125)"/>
<path d="M0 0 C7.23822934 0.48144186 14.39103834 1.43606665 21.5625 2.5 C22.45549805 2.63059814 23.34849609 2.76119629 24.26855469 2.89575195 C25.1093457 3.02296631 25.95013672 3.15018066 26.81640625 3.28125 C27.57381104 3.39533203 28.33121582 3.50941406 29.11157227 3.62695312 C31 4 31 4 33 5 C32.39816251 7.02045442 31.72693904 9.02111039 31 11 C30.01 11.495 30.01 11.495 29 12 C29.33 10.02 29.66 8.04 30 6 C28.700625 6.04125 27.40125 6.0825 26.0625 6.125 C21.12490221 6.11730904 16.75968744 5.23482457 12 4 C10.39898437 3.60361328 10.39898437 3.60361328 8.765625 3.19921875 C5.84141948 2.4750317 2.91995518 1.74110538 0 1 C0 0.67 0 0.34 0 0 Z " fill="#FCFAE4" transform="translate(225,122)"/>
<path d="M0 0 C3.3 0.66 6.6 1.32 10 2 C9.01 2.495 9.01 2.495 8 3 C8 3.66 8 4.32 8 5 C6.70766393 6.37310707 5.37562854 7.71034824 4 9 C4.66 9.33 5.32 9.66 6 10 C1.545 10.495 1.545 10.495 -3 11 C-3 10.34 -3 9.68 -3 9 C-3.66 8.67 -4.32 8.34 -5 8 C-5 7.01 -5 6.02 -5 5 C-0.125 6.875 -0.125 6.875 1 8 C1.66 6.68 2.32 5.36 3 4 C1.35 3.67 -0.3 3.34 -2 3 C-1.34 2.01 -0.68 1.02 0 0 Z " fill="#A07E3F" transform="translate(288,115)"/>
<path d="M0 0 C0.22142255 1.95689659 0.4267568 3.91561952 0.625 5.875 C0.74101562 6.96554688 0.85703125 8.05609375 0.9765625 9.1796875 C0.98429687 10.11039063 0.99203125 11.04109375 1 12 C0.34 12.66 -0.32 13.32 -1 14 C-1.66 13.67 -2.32 13.34 -3 13 C-3 11.35 -3 9.7 -3 8 C-5.33214148 6.79371992 -7.49642139 5.8345262 -10 5 C-8.34220923 2.29518348 -7.54112366 1.15837766 -4.4375 0.25 C-2 0 -2 0 0 0 Z " fill="#DDBE70" transform="translate(263,118)"/>
<path d="M0 0 C-0.33 1.32 -0.66 2.64 -1 4 C0.65 4 2.3 4 4 4 C4 4.33 4 4.66 4 5 C1.62524166 5.48039005 -0.74979155 5.95934474 -3.125 6.4375 C-3.79015625 6.57220703 -4.4553125 6.70691406 -5.140625 6.84570312 C-9.08346807 7.63813727 -13.02912121 8.36292755 -17 9 C-13.08605897 4.19652692 -6.27464566 0 0 0 Z " fill="#7CB9CD" transform="translate(282,237)"/>
<path d="M0 0 C0.33 0 0.66 0 1 0 C1 4.95 1 9.9 1 15 C1.99 14.01 2.98 13.02 4 12 C3.5391335 16.95431487 2.16484423 19.24174747 -1 23 C-1.77833534 25.18214568 -1.77833534 25.18214568 -2 27 C-3.32 27.33 -4.64 27.66 -6 28 C-6 27.34 -6 26.68 -6 26 C-5.01 26 -4.02 26 -3 26 C-3.020625 24.906875 -3.04125 23.81375 -3.0625 22.6875 C-3 19 -3 19 -2 16 C-1.61496448 13.27102562 -1.2601109 10.54871837 -0.9375 7.8125 C-0.80118164 6.68811523 -0.80118164 6.68811523 -0.66210938 5.54101562 C-0.4386269 3.69434465 -0.21894487 1.84721446 0 0 Z " fill="#F1DD9A" transform="translate(269,81)"/>
<path d="M0 0 C2.64 1.65 5.28 3.3 8 5 C7.67 5.66 7.34 6.32 7 7 C6.01 7 5.02 7 4 7 C4.66 8.32 5.32 9.64 6 11 C4.37276701 10.54965877 2.74826336 10.08944646 1.125 9.625 C0.22007813 9.36976563 -0.68484375 9.11453125 -1.6171875 8.8515625 C-4 8 -4 8 -6 6 C-3.29120665 4.64560332 -0.99066732 4.93498549 2 5 C2 4.34 2 3.68 2 3 C1.01 2.67 0.02 2.34 -1 2 C-0.67 1.34 -0.34 0.68 0 0 Z " fill="#7CB8CB" transform="translate(81,207)"/>
<path d="M0 0 C0.33 0 0.66 0 1 0 C1.33 1.65 1.66 3.3 2 5 C3.32 4.01 4.64 3.02 6 2 C6.66 2.33 7.32 2.66 8 3 C7 6 7 6 6 7 C6.66 7 7.32 7 8 7 C8.103125 7.61875 8.20625 8.2375 8.3125 8.875 C8.87525373 11.36526484 8.87525373 11.36526484 12 13 C9.69 12.67 7.38 12.34 5 12 C5 11.01 5 10.02 5 9 C4.0409375 9.2784375 4.0409375 9.2784375 3.0625 9.5625 C2.381875 9.706875 1.70125 9.85125 1 10 C0.67 9.67 0.34 9.34 0 9 C-0.66 9.66 -1.32 10.32 -2 11 C-1.34 7.37 -0.68 3.74 0 0 Z " fill="#E2C581" transform="translate(277,102)"/>
<path d="M0 0 C0.66 0.33 1.32 0.66 2 1 C2 1.66 2 2.32 2 3 C3.32 2.34 4.64 1.68 6 1 C6 1.99 6 2.98 6 4 C5.34 4 4.68 4 4 4 C3.67 5.65 3.34 7.3 3 9 C2.21625 9.103125 1.4325 9.20625 0.625 9.3125 C-2.33045181 9.77595022 -2.33045181 9.77595022 -4 13 C-4.33 11.02 -4.66 9.04 -5 7 C-4.01 6.34 -3.02 5.68 -2 5 C-0.79549696 2.44816596 -0.79549696 2.44816596 0 0 Z " fill="#C5A35C" transform="translate(278,113)"/>
<path d="M0 0 C0.99 1.32 1.98 2.64 3 4 C0.54217884 6.45782116 -0.58153802 6.40920971 -3.98046875 6.81640625 C-5.4799707 7.00299805 -5.4799707 7.00299805 -7.00976562 7.19335938 C-8.58274414 7.37608398 -8.58274414 7.37608398 -10.1875 7.5625 C-12.2435206 7.81354823 -14.29951093 8.06484447 -16.35546875 8.31640625 C-17.32661621 8.43258301 -18.29776367 8.54875977 -19.29833984 8.66845703 C-22.54007119 9.06627658 -25.76949375 9.52022184 -29 10 C-28 8 -28 8 -25.5859375 7.1484375 C-16.84480291 5.04290873 -8.93441008 4.66634983 0 5 C0 3.35 0 1.7 0 0 Z " fill="#FAF5D6" transform="translate(256,110)"/>
<path d="M0 0 C0.33 0 0.66 0 1 0 C3.6200318 12.936407 3.6200318 12.936407 3 18 C0.9765625 20.19140625 0.9765625 20.19140625 -1 22 C-1.0270817 19.27076612 -1.04687847 16.54180363 -1.0625 13.8125 C-1.07087891 13.04357422 -1.07925781 12.27464844 -1.08789062 11.48242188 C-1.10491934 7.51473211 -0.98604115 3.87428766 0 0 Z " fill="#80BCCF" transform="translate(28,126)"/>
<path d="M0 0 C0.66 0 1.32 0 2 0 C3.06405177 5.51372281 3.1226212 7.84113526 0.72338867 13.03540039 C-0.57964959 16.57422891 -0.57541969 20.20042227 -0.6875 23.9375 C-0.72166016 24.71673828 -0.75582031 25.49597656 -0.79101562 26.29882812 C-0.8726071 28.19874393 -0.93799885 30.09934403 -1 32 C-1.33 32 -1.66 32 -2 32 C-2.22256188 21.09446805 -1.93915661 10.76924476 0 0 Z " fill="#77B5C8" transform="translate(98,125)"/>
<path d="M0 0 C0.66 0.33 1.32 0.66 2 1 C0.02 2.32 -1.96 3.64 -4 5 C-3.01 6.65 -2.02 8.3 -1 10 C-2.98 10.99 -2.98 10.99 -5 12 C-5 10.68 -5 9.36 -5 8 C-7.64 8 -10.28 8 -13 8 C-13 7.34 -13 6.68 -13 6 C-12.14535156 5.65066406 -11.29070312 5.30132812 -10.41015625 4.94140625 C-9.30542969 4.48636719 -8.20070312 4.03132812 -7.0625 3.5625 C-5.96035156 3.11003906 -4.85820312 2.65757812 -3.72265625 2.19140625 C-1.13431084 1.25575392 -1.13431084 1.25575392 0 0 Z " fill="#79B6CA" transform="translate(233,167)"/>
<path d="M0 0 C2.475 0.495 2.475 0.495 5 1 C4.95875 1.99 4.9175 2.98 4.875 4 C4.8576652 8.23835866 5.85808838 11.93193985 7 16 C4 15 4 15 2 12 C0.33523259 7.83808147 -0.21308493 4.47478349 0 0 Z " fill="#EDF4EA" transform="translate(275,83)"/>
<path d="M0 0 C0.99 0 1.98 0 3 0 C3.12375 0.61875 3.2475 1.2375 3.375 1.875 C3.87197356 4.19120832 3.87197356 4.19120832 6 6 C1.82262526 7.59138085 -1.53160785 8.21278058 -6 8 C-4.7260411 5.96166576 -3.38938077 3.96147874 -2 2 C-1.34 2 -0.68 2 0 2 C0 1.34 0 0.68 0 0 Z " fill="#AF9057" transform="translate(296,118)"/>
<path d="M0 0 C1.32 0.33 2.64 0.66 4 1 C3.67 1.99 3.34 2.98 3 4 C2.01 3.67 1.02 3.34 0 3 C0 4.32 0 5.64 0 7 C-0.99 7.66 -1.98 8.32 -3 9 C-3.33 9.99 -3.66 10.98 -4 12 C-4.66 12 -5.32 12 -6 12 C-6 12.66 -6 13.32 -6 14 C-4.35 14.33 -2.7 14.66 -1 15 C-3.60582371 15.93065133 -4.64198224 16.14917407 -7.25 15.0625 C-7.8275 14.711875 -8.405 14.36125 -9 14 C-8.67 13.01 -8.34 12.02 -8 11 C-7.01 11 -6.02 11 -5 11 C-4.9175 10.29875 -4.835 9.5975 -4.75 8.875 C-3.82972275 5.34727053 -2.11873023 2.93888386 0 0 Z " fill="#F6F3DB" transform="translate(294,99)"/>
<path d="M0 0 C0.66 0.33 1.32 0.66 2 1 C1.67 1.66 1.34 2.32 1 3 C-0.32 3 -1.64 3 -3 3 C-4.70680947 4.62553283 -6.37660195 6.29115995 -8 8 C-8.66 8 -9.32 8 -10 8 C-9.25 2.25 -9.25 2.25 -7 0 C-3.83299069 -1.05566977 -3.03571759 -0.97926374 0 0 Z " fill="#E3C679" transform="translate(259,117)"/>
<path d="M0 0 C0 4.09826298 -1.62497953 6.78479123 -4 10 C-5.93251221 11.89620196 -7.94239581 13.62905391 -10.02734375 15.35546875 C-12.51669159 17.43074685 -14.74540657 19.67495053 -17 22 C-17.66 21.67 -18.32 21.34 -19 21 C-18.13117188 20.154375 -17.26234375 19.30875 -16.3671875 18.4375 C-10.41001187 12.59069034 -4.74167946 6.90930435 0 0 Z " fill="#E0F2F1" transform="translate(368,135)"/>
<path d="M0 0 C4.41743795 1.38833764 7.0833938 3.39713352 10 7 C9.75 9.125 9.75 9.125 9 11 C9.33 11.99 9.66 12.98 10 14 C9.34 14 8.68 14 8 14 C6.30859375 11.69921875 6.30859375 11.69921875 4.4375 8.6875 C3.81746094 7.70136719 3.19742188 6.71523437 2.55859375 5.69921875 C1 3 1 3 0 0 Z " fill="#ECD693" transform="translate(247,96)"/>
<path d="M0 0 C0.66 0 1.32 0 2 0 C1.90460938 0.62648438 1.80921875 1.25296875 1.7109375 1.8984375 C1.60007812 2.71570313 1.48921875 3.53296875 1.375 4.375 C1.25898438 5.18710938 1.14296875 5.99921875 1.0234375 6.8359375 C1.01570313 7.55007812 1.00796875 8.26421875 1 9 C1.66 9.66 2.32 10.32 3 11 C2.01 11 1.02 11 0 11 C-0.33 11.66 -0.66 12.32 -1 13 C-3.475 12.01 -3.475 12.01 -6 11 C-6 10.34 -6 9.68 -6 9 C-5.34 9 -4.68 9 -4 9 C-3.896875 8.360625 -3.79375 7.72125 -3.6875 7.0625 C-3.460625 6.381875 -3.23375 5.70125 -3 5 C-2.01 4.67 -1.02 4.34 0 4 C0 2.68 0 1.36 0 0 Z " fill="#F3FAF1" transform="translate(294,102)"/>
<path d="M0 0 C-0.33 0.99 -0.66 1.98 -1 3 C-2.75 3.625 -2.75 3.625 -5 4 C-5.763125 4.226875 -6.52625 4.45375 -7.3125 4.6875 C-10.89487431 5.10405515 -13.61238795 4.12920402 -17 3 C-17 2.67 -17 2.34 -17 2 C-5.47835991 -0.29612756 -5.47835991 -0.29612756 0 0 Z " fill="#EBD896" transform="translate(240,118)"/>
<path d="M0 0 C2.3431213 0.25561323 4.67843403 0.59270772 7 1 C7.33 1.66 7.66 2.32 8 3 C7.34 3 6.68 3 6 3 C6 4.32 6 5.64 6 7 C4.68 7 3.36 7 2 7 C2 6.34 2 5.68 2 5 C1.34 5 0.68 5 0 5 C0 3.35 0 1.7 0 0 Z " fill="#5FACC7" transform="translate(141,166)"/>
<path d="M0 0 C0.66 0.33 1.32 0.66 2 1 C1.01 2.32 0.02 3.64 -1 5 C-0.34 5.33 0.32 5.66 1 6 C-5.75 10 -5.75 10 -8 10 C-8 8 -8 8 -6.5 6.375 C-6.005 5.92125 -5.51 5.4675 -5 5 C-5.66 5 -6.32 5 -7 5 C-5.60683123 2.21366246 -3.84019484 2.06507306 -1 1 C-0.67 0.67 -0.34 0.34 0 0 Z " fill="#E4F5F5" transform="translate(309,166)"/>
<path d="M0 0 C0.99 0 1.98 0 3 0 C2.67 0.99 2.34 1.98 2 3 C2.66 3.66 3.32 4.32 4 5 C2.71475739 5.86380259 1.42157581 6.71580369 0.125 7.5625 C-0.59429687 8.03816406 -1.31359375 8.51382813 -2.0546875 9.00390625 C-2.69664062 9.33261719 -3.33859375 9.66132813 -4 10 C-4.66 9.67 -5.32 9.34 -6 9 C-5.071875 7.88625 -5.071875 7.88625 -4.125 6.75 C-2.39562719 4.51198812 -1.13893339 2.56260013 0 0 Z " fill="#D4C18F" transform="translate(254,134)"/>
<path d="M0 0 C1.32 0 2.64 0 4 0 C4 0.99 4 1.98 4 3 C4.66 3.33 5.32 3.66 6 4 C4.35 5.65 2.7 7.3 1 9 C1 7.35 1 5.7 1 4 C-0.65 4.66 -2.3 5.32 -4 6 C-3.67 5.01 -3.34 4.02 -3 3 C-2.34 3 -1.68 3 -1 3 C-0.67 2.01 -0.34 1.02 0 0 Z " fill="#CCAC6E" transform="translate(265,130)"/>
<path d="M0 0 C-0.33 3.3 -0.66 6.6 -1 10 C-1.66 8.68 -2.32 7.36 -3 6 C-3.33 5.67 -3.66 5.34 -4 5 C-4 5.99 -4 6.98 -4 8 C-5.65 7.67 -7.3 7.34 -9 7 C-8.01 6.67 -7.02 6.34 -6 6 C-5.65657551 4.66923011 -5.32380126 3.33568021 -5 2 C-2 0 -2 0 0 0 Z " fill="#EECF75" transform="translate(273,102)"/>
<path d="M0 0 C2.29113732 2.1907039 3.6975667 4.09457188 5 7 C4.01 7.495 4.01 7.495 3 8 C2.53476937 9.89533342 2.53476937 9.89533342 2.375 12.0625 C2.25125 13.361875 2.1275 14.66125 2 16 C1.67 16 1.34 16 1 16 C0.14701624 12.32612505 -0.10789471 8.9552607 -0.0625 5.1875 C-0.05347656 4.21167969 -0.04445312 3.23585937 -0.03515625 2.23046875 C-0.02355469 1.49441406 -0.01195312 0.75835937 0 0 Z " fill="#DAEFF1" transform="translate(37,141)"/>
<path d="M0 0 C1.31534494 3.65857532 0.65468309 6.08026481 -0.4375 9.75 C-0.72496094 10.73484375 -1.01242187 11.7196875 -1.30859375 12.734375 C-1.65083984 13.85585937 -1.65083984 13.85585937 -2 15 C-3.32 15.33 -4.64 15.66 -6 16 C-4.25192871 10.53262809 -2.34205919 5.24175152 0 0 Z " fill="#7CBACC" transform="translate(374,101)"/>
<path d="M0 0 C1.32 0 2.64 0 4 0 C4 0.99 4 1.98 4 3 C8.29 3.66 12.58 4.32 17 5 C17 5.66 17 6.32 17 7 C11.12288378 7.48975968 6.90388227 6.37071448 2 3 C1.34 2.01 0.68 1.02 0 0 Z " fill="#7FB6C8" transform="translate(232,296)"/>
<path d="M0 0 C0.33 0 0.66 0 1 0 C1.35338623 2.96844435 1.5417682 5.15598218 -0.11328125 7.734375 C-1.35503168 9.20348819 -2.67337918 10.60704814 -4 12 C-4.33 11.34 -4.66 10.68 -5 10 C-4.67 9.34 -4.34 8.68 -4 8 C-4.66 7.67 -5.32 7.34 -6 7 C-5.67 6.01 -5.34 5.02 -5 4 C-3.66666667 3.66666667 -2.33333333 3.33333333 -1 3 C-0.67 2.01 -0.34 1.02 0 0 Z " fill="#B18C46" transform="translate(273,122)"/>
<path d="M0 0 C-0.33 0.66 -0.66 1.32 -1 2 C-1.99 2.33 -2.98 2.66 -4 3 C-4.66 3.66 -5.32 4.32 -6 5 C-8.31 4.01 -10.62 3.02 -13 2 C-13 1.67 -13 1.34 -13 1 C-8.59085217 -0.10228696 -4.51617599 -0.07654536 0 0 Z " fill="#ECD58F" transform="translate(255,116)"/>
<path d="M0 0 C-1.95585325 1.00484204 -3.91476237 2.00373805 -5.875 3 C-6.96554687 3.556875 -8.05609375 4.11375 -9.1796875 4.6875 C-12 6 -12 6 -14 6 C-13 3 -13 3 -11.07421875 1.796875 C-10.28660156 1.45140625 -9.49898438 1.1059375 -8.6875 0.75 C-7.90761719 0.39421875 -7.12773437 0.0384375 -6.32421875 -0.328125 C-3.75392773 -1.0711335 -2.48616571 -0.88750996 0 0 Z " fill="#E5F8F9" transform="translate(339,217)"/>
<path d="M0 0 C0.33 0 0.66 0 1 0 C1.05447047 1.41623216 1.09300508 2.83308191 1.125 4.25 C1.14820313 5.03890625 1.17140625 5.8278125 1.1953125 6.640625 C0.9828378 9.20731941 0.28654105 10.7916067 -1 13 C-2.30765478 9.07703567 -2.1971417 6.13997567 -2 2 C-1.34 1.34 -0.68 0.68 0 0 Z " fill="#5DAAC4" transform="translate(30,144)"/>
<path d="M0 0 C0 1.32 0 2.64 0 4 C-1.65 3.67 -3.3 3.34 -5 3 C-5.33 3.99 -5.66 4.98 -6 6 C-7.32 5.67 -8.64 5.34 -10 5 C-8.34220923 2.29518348 -7.54112366 1.15837766 -4.4375 0.25 C-2 0 -2 0 0 0 Z " fill="#D0B264" transform="translate(263,118)"/>
<path d="M0 0 C0 3.78374009 -1.10336895 5.74863249 -3 9 C-6.3 12 -6.3 12 -9 12 C-7.55575365 8.76138697 -5.74227753 6.38030837 -3.375 3.75 C-2.74335938 3.04359375 -2.11171875 2.3371875 -1.4609375 1.609375 C-0.97882813 1.07828125 -0.49671875 0.5471875 0 0 Z " fill="#C9A85F" transform="translate(278,109)"/>
<path d="M0 0 C1.98 0.66 3.96 1.32 6 2 C5.67 2.66 5.34 3.32 5 4 C4.34 4 3.68 4 3 4 C3 3.34 3 2.68 3 2 C2.34 2 1.68 2 1 2 C1.515625 2.391875 2.03125 2.78375 2.5625 3.1875 C3.036875 3.785625 3.51125 4.38375 4 5 C3.6875 7.6875 3.6875 7.6875 3 10 C1 9 1 9 -0.1875 6.6875 C-1.03624754 3.88010429 -0.99928333 2.698065 0 0 Z " fill="#E9CC81" transform="translate(256,103)"/>
<path d="M0 0 C0.33 0.66 0.66 1.32 1 2 C3.64 1.67 6.28 1.34 9 1 C6.75 3.5625 6.75 3.5625 4 6 C1.6875 5.8125 1.6875 5.8125 0 5 C0 3.35 0 1.7 0 0 Z " fill="#64A7BF" transform="translate(281,93)"/>
<path d="M0 0 C0.66 0 1.32 0 2 0 C2.33 3.96 2.66 7.92 3 12 C1.68 11.34 0.36 10.68 -1 10 C-0.67 6.7 -0.34 3.4 0 0 Z " fill="#E8DBA9" transform="translate(271,71)"/>
<path d="M0 0 C0.66 0.66 1.32 1.32 2 2 C-3.445 5.96 -3.445 5.96 -9 10 C-9.33 9.01 -9.66 8.02 -10 7 C-4.375 3 -4.375 3 -1 3 C-0.67 2.01 -0.34 1.02 0 0 Z " fill="#E0F3F5" transform="translate(342,184)"/>
<path d="M0 0 C2.50037734 2.17424117 3.43628586 3.73045798 4 7 C0.22454612 5.90931332 -2.47043472 5.0916909 -5 2 C-3.35 1.34 -1.7 0.68 0 0 Z " fill="#B7A376" transform="translate(290,136)"/>
<path d="M0 0 C0 3.39593478 -0.52165948 4.06619881 -2.5 6.6875 C-2.9640625 7.31011719 -3.428125 7.93273437 -3.90625 8.57421875 C-4.2671875 9.04472656 -4.628125 9.51523438 -5 10 C-6.32 8.68 -7.64 7.36 -9 6 C-6.03 4.02 -3.06 2.04 0 0 Z " fill="#C7B486" transform="translate(296,95)"/>
<path d="M0 0 C-0.33 0.99 -0.66 1.98 -1 3 C1.475 3.99 1.475 3.99 4 5 C3.01 5.495 3.01 5.495 2 6 C0.32700041 5.34938905 -1.33859237 4.67966676 -3 4 C-4.9924325 3.62406934 -6.9918674 3.28020455 -9 3 C-5.92807025 0.26939578 -4.09590633 -0.34132553 0 0 Z " fill="#82B9CB" transform="translate(170,89)"/>
<path d="M0 0 C6.435 2.97 6.435 2.97 13 6 C9.71023192 7.09658936 8.28696233 6.79953138 5 6 C5 5.34 5 4.68 5 4 C2.525 3.01 2.525 3.01 0 2 C0 1.34 0 0.68 0 0 Z " fill="#7CB7CA" transform="translate(112,190)"/>
<path d="M0 0 C0.66 0.66 1.32 1.32 2 2 C1.236875 2.7425 0.47375 3.485 -0.3125 4.25 C-2.4393702 6.4263323 -4.2559956 8.52167796 -6 11 C-7.32 10.67 -8.64 10.34 -10 10 C-9.44570313 9.52949219 -8.89140625 9.05898437 -8.3203125 8.57421875 C-7.59585937 7.95160156 -6.87140625 7.32898438 -6.125 6.6875 C-5.40570313 6.07261719 -4.68640625 5.45773438 -3.9453125 4.82421875 C-1.80820669 2.9587676 -1.80820669 2.9587676 0 0 Z " fill="#7CBACD" transform="translate(351,140)"/>
<path d="M0 0 C1.6254308 0.14095064 3.25034051 0.28792087 4.875 0.4375 C5.77992188 0.51871094 6.68484375 0.59992188 7.6171875 0.68359375 C10 1 10 1 12 2 C11.39816251 4.02045442 10.72693904 6.02111039 10 8 C9.01 8.495 9.01 8.495 8 9 C8.33 6.69 8.66 4.38 9 2 C7.329375 2.061875 7.329375 2.061875 5.625 2.125 C2 2 2 2 0 0 Z " fill="#F9F3D4" transform="translate(246,125)"/>
<path d="M0 0 C0.66 0.33 1.32 0.66 2 1 C-1.12621626 4.39417765 -3.56541027 6.6062718 -8 8 C-5.33333333 5.33333333 -2.66666667 2.66666667 0 0 Z M-10 8 C-9.34 8.33 -8.68 8.66 -8 9 C-9.98 9.99 -9.98 9.99 -12 11 C-11.34 10.01 -10.68 9.02 -10 8 Z " fill="#E4F6F6" transform="translate(220,104)"/>
<path d="M0 0 C-1.39635618 3.37452744 -2.8606353 5.11638118 -6 7 C-8.75 7.6875 -8.75 7.6875 -11 8 C-3.28571429 0 -3.28571429 0 0 0 Z " fill="#80B9CB" transform="translate(352,208)"/>
<path d="M0 0 C-0.33 1.32 -0.66 2.64 -1 4 C-3.64 3.67 -6.28 3.34 -9 3 C-9.33 3.66 -9.66 4.32 -10 5 C-10 4.01 -10 3.02 -10 2 C-6.38026598 0.68373308 -3.90432869 0 0 0 Z " fill="#6EADC0" transform="translate(313,126)"/>
<path d="M0 0 C1.32 0.33 2.64 0.66 4 1 C3.01 1 2.02 1 1 1 C1.33 2.32 1.66 3.64 2 5 C0.68 4.67 -0.64 4.34 -2 4 C-1.34 2.68 -0.68 1.36 0 0 Z M-2 5 C-1.34 5.66 -0.68 6.32 0 7 C-1.32 7.99 -2.64 8.98 -4 10 C-4 9.01 -4 8.02 -4 7 C-3.34 7 -2.68 7 -2 7 C-2 6.34 -2 5.68 -2 5 Z " fill="#BB9D63" transform="translate(285,126)"/>
<path d="M0 0 C-1.62249941 0.83819158 -3.24808497 1.6704116 -4.875 2.5 C-6.23238281 3.19609375 -6.23238281 3.19609375 -7.6171875 3.90625 C-10 5 -10 5 -12 5 C-12 4.34 -12 3.68 -12 3 C-10.75823305 2.29773859 -9.50614401 1.61370891 -8.25 0.9375 C-7.20585937 0.36322266 -7.20585937 0.36322266 -6.140625 -0.22265625 C-3.63859372 -1.1312406 -2.4667645 -0.88336837 0 0 Z " fill="#E4F6F7" transform="translate(281,188)"/>
<path d="M0 0 C0.33 0 0.66 0 1 0 C1.33 3.96 1.66 7.92 2 12 C0.02 11.01 -1.96 10.02 -4 9 C-3.01 8.34 -2.02 7.68 -1 7 C-0.26393501 3.43230448 -0.26393501 3.43230448 0 0 Z " fill="#D7EFF1" transform="translate(98,172)"/>
<path d="M0 0 C2.9375 0.8125 2.9375 0.8125 6 2 C6.33 2.99 6.66 3.98 7 5 C3.79937313 6.60031344 1.27728194 5.03173691 -2 4 C-2 3.34 -2 2.68 -2 2 C-1.34 2 -0.68 2 0 2 C0 1.34 0 0.68 0 0 Z " fill="#C7A65D" transform="translate(266,120)"/>
<path d="M0 0 C5.875 3.625 5.875 3.625 7 7 C4.36 6.34 1.72 5.68 -1 5 C-0.34 4.67 0.32 4.34 1 4 C0.67 2.68 0.34 1.36 0 0 Z " fill="#81B4C3" transform="translate(104,240)"/>
<path d="M0 0 C0.99 0 1.98 0 3 0 C2.67 2.31 2.34 4.62 2 7 C1.01 6.67 0.02 6.34 -1 6 C-1.8125 4.0625 -1.8125 4.0625 -2 2 C-1.34 1.34 -0.68 0.68 0 0 Z " fill="#58ADCA" transform="translate(110,208)"/>
<path d="M0 0 C0.99 0.33 1.98 0.66 3 1 C0.69 3.64 -1.62 6.28 -4 9 C-4.33 8.01 -4.66 7.02 -5 6 C-4.34 6 -3.68 6 -3 6 C-3 5.01 -3 4.02 -3 3 C-1.5 1.3125 -1.5 1.3125 0 0 Z " fill="#DEF3F5" transform="translate(356,199)"/>
<path d="M0 0 C0 3 0 3 -1 6 C-2.84765625 6.73046875 -2.84765625 6.73046875 -5.0625 7.1875 C-5.79597656 7.34605469 -6.52945312 7.50460938 -7.28515625 7.66796875 C-8.13400391 7.83232422 -8.13400391 7.83232422 -9 8 C-6.14723863 5.06799526 -3.34920216 2.35684596 0 0 Z " fill="#E6F5F2" transform="translate(348,157)"/>
<path d="M0 0 C0.8971875 0.309375 0.8971875 0.309375 1.8125 0.625 C1.07 0.99625 0.3275 1.3675 -0.4375 1.75 C-3.66214465 3.94862135 -5.19528279 6.30463799 -7.1875 9.625 C-7.5175 8.965 -7.8475 8.305 -8.1875 7.625 C-4.67638889 -0.80166667 -4.67638889 -0.80166667 0 0 Z " fill="#E3F3F4" transform="translate(143.1875,160.375)"/>
<path d="M0 0 C0.33 0 0.66 0 1 0 C1.33 3.63 1.66 7.26 2 11 C1.01 11.66 0.02 12.32 -1 13 C-0.67 8.71 -0.34 4.42 0 0 Z " fill="#ECE5CE" transform="translate(277,138)"/>
<path d="M0 0 C0 0.66 0 1.32 0 2 C1.32 2.33 2.64 2.66 4 3 C-0.68965706 4.11658501 -3.53763531 3.80619523 -8 2 C-4.91190305 0.23537317 -3.76687864 0 0 0 Z " fill="#EFEFE4" transform="translate(309,123)"/>
<path d="M0 0 C2.97 0.33 5.94 0.66 9 1 C9 2.32 9 3.64 9 5 C5.51694958 4.35499066 2.93797836 2.95865224 0 1 C0 0.67 0 0.34 0 0 Z " fill="#FAF4CE" transform="translate(257,102)"/>
<path d="M0 0 C0.33 0 0.66 0 1 0 C1 2.97 1 5.94 1 9 C1.66 9.33 2.32 9.66 3 10 C1.02 10.99 1.02 10.99 -1 12 C-1.08159574 7.83861737 -0.98248524 4.0527516 0 0 Z " fill="#79B4C6" transform="translate(304,158)"/>
<path d="M0 0 C0.99 0.33 1.98 0.66 3 1 C3 4.63 3 8.26 3 12 C2.34 11.67 1.68 11.34 1 11 C0.5859375 8.49609375 0.5859375 8.49609375 0.375 5.4375 C0.30023438 4.42558594 0.22546875 3.41367188 0.1484375 2.37109375 C0.09945313 1.58863281 0.05046875 0.80617187 0 0 Z " fill="#B19D72" transform="translate(270,157)"/>
<path d="M0 0 C1.6396875 0.0928125 1.6396875 0.0928125 3.3125 0.1875 C2.9825 1.5075 2.6525 2.8275 2.3125 4.1875 C-0.6575 3.8575 -3.6275 3.5275 -6.6875 3.1875 C-3.6875 0.1875 -3.6875 0.1875 0 0 Z " fill="#E1CA8B" transform="translate(255.6875,122.8125)"/>
<path d="M0 0 C0.99 0 1.98 0 3 0 C3 0.66 3 1.32 3 2 C6.465 1.505 6.465 1.505 10 1 C10 1.99 10 2.98 10 4 C7.03 3.67 4.06 3.34 1 3 C0.67 2.01 0.34 1.02 0 0 Z " fill="#F2EFDC" transform="translate(294,113)"/>
<path d="M0 0 C3.37503669 1.1858237 5.64722731 2.27573689 8 5 C7.01 5 6.02 5 5 5 C4.67 5.66 4.34 6.32 4 7 C0 2.25 0 2.25 0 0 Z " fill="#E5DAAC" transform="translate(247,96)"/>
<path d="M0 0 C-2.85478326 1.90318884 -4.41941308 2.4619099 -7.6875 3.125 C-8.49574219 3.29257813 -9.30398438 3.46015625 -10.13671875 3.6328125 C-10.75160156 3.75398437 -11.36648438 3.87515625 -12 4 C-8.41084094 -0.78554541 -5.58334594 -0.37222306 0 0 Z " fill="#7DAFBC" transform="translate(277,242)"/>
<path d="M0 0 C0.33 0 0.66 0 1 0 C1 3.96 1 7.92 1 12 C0.67 12 0.34 12 0 12 C-0.33 10.02 -0.66 8.04 -1 6 C-1.99 6.495 -1.99 6.495 -3 7 C-1.125 1.125 -1.125 1.125 0 0 Z " fill="#D7EAEE" transform="translate(373,126)"/>
<path d="M0 0 C-0.66 1.32 -1.32 2.64 -2 4 C-4.97 4 -7.94 4 -11 4 C-3 0 -3 0 0 0 Z " fill="#7FBCCC" transform="translate(189,116)"/>
<path d="M0 0 C2 2.66666667 4 5.33333333 6 8 C5.67 8.66 5.34 9.32 5 10 C3.96468274 9.09972412 2.94705835 8.17906965 1.9375 7.25 C1.36902344 6.73953125 0.80054688 6.2290625 0.21484375 5.703125 C-1 4 -1 4 -0.68359375 1.796875 C-0.45800781 1.20390625 -0.23242188 0.6109375 0 0 Z " fill="#CDEDF1" transform="translate(34,173)"/>
<path d="M0 0 C0.33 0.99 0.66 1.98 1 3 C-2.96 4.98 -2.96 4.98 -7 7 C-7.33 6.34 -7.66 5.68 -8 5 C-4.04 2.525 -4.04 2.525 0 0 Z " fill="#85BDCE" transform="translate(325,162)"/>
<path d="M0 0 C0.66 0 1.32 0 2 0 C2.6875 2.3125 2.6875 2.3125 3 5 C1.5625 6.8125 1.5625 6.8125 0 8 C-0.98120464 4.94736336 -0.98120464 3.05263664 0 0 Z " fill="#F1D885" transform="translate(265,111)"/>
<path d="M0 0 C1 3 1 3 0.0625 5.1875 C-0.4634375 6.0846875 -0.4634375 6.0846875 -1 7 C-1.66 7 -2.32 7 -3 7 C-3 5.02 -3 3.04 -3 1 C-2.01 0.67 -1.02 0.34 0 0 Z " fill="#76B5CA" transform="translate(354,218)"/>
<path d="M0 0 C2.75 0.25 2.75 0.25 5 1 C2.23776722 3.76223278 -0.20706617 3.57856291 -4 4 C-2.3125 1.9375 -2.3125 1.9375 0 0 Z " fill="#67B4CE" transform="translate(302,211)"/>
<path d="M0 0 C2.53731364 1.26865682 2.78646846 2.49709121 4 5 C4.66 5.66 5.32 6.32 6 7 C5.01 7.99 4.02 8.98 3 10 C0 3.375 0 3.375 0 0 Z " fill="#79B6CA" transform="translate(31,163)"/>
<path d="M0 0 C1.32 0 2.64 0 4 0 C4 1.65 4 3.3 4 5 C0 5 0 5 -2 4 C-1.34 2.68 -0.68 1.36 0 0 Z " fill="#A98A4D" transform="translate(284,131)"/>
<path d="M0 0 C7.50769231 -0.36923077 7.50769231 -0.36923077 10 1.5 C10.495 2.2425 10.495 2.2425 11 3 C9 4 9 4 6.8359375 3.44140625 C6.02382812 3.15136719 5.21171875 2.86132812 4.375 2.5625 C3.55773437 2.27503906 2.74046875 1.98757812 1.8984375 1.69140625 C1.27195312 1.46324219 0.64546875 1.23507813 0 1 C0 0.67 0 0.34 0 0 Z " fill="#DAF0F3" transform="translate(99,253)"/>
<path d="M0 0 C-4.77830905 2.91360308 -7.55106131 3.19876651 -13 2 C-13 1.67 -13 1.34 -13 1 C-11.58622218 0.63447197 -10.16879424 0.28304505 -8.75 -0.0625 C-7.96109375 -0.25972656 -7.1721875 -0.45695313 -6.359375 -0.66015625 C-3.89605178 -1.01497267 -2.34395868 -0.76877544 0 0 Z " fill="#DFF3F4" transform="translate(323,236)"/>
<path d="M0 0 C0.33 0.99 0.66 1.98 1 3 C-0.32 4.32 -1.64 5.64 -3 7 C-3.99 6.67 -4.98 6.34 -6 6 C-4.02 4.02 -2.04 2.04 0 0 Z " fill="#7FBCCD" transform="translate(231,185)"/>
<path d="M0 0 C2.97 0.99 5.94 1.98 9 3 C8.01 3.33 7.02 3.66 6 4 C6 4.66 6 5.32 6 6 C2.26360784 4.75453595 1.81243487 3.36595047 0 0 Z " fill="#88B6C4" transform="translate(156,115)"/>
<path d="M0 0 C0.66 0 1.32 0 2 0 C2.66 1.98 3.32 3.96 4 6 C2.35 5.67 0.7 5.34 -1 5 C-0.67 3.35 -0.34 1.7 0 0 Z " fill="#73ABBD" transform="translate(304,108)"/>
<path d="M0 0 C0.66 0.33 1.32 0.66 2 1 C-1.5 5.875 -1.5 5.875 -6 7 C-4.02 4.69 -2.04 2.38 0 0 Z " fill="#7EBAC9" transform="translate(226,223)"/>
<path d="M0 0 C1.65 0 3.3 0 5 0 C5 0.66 5 1.32 5 2 C6.32 2.33 7.64 2.66 9 3 C9 3.66 9 4.32 9 5 C5.54074837 3.7508258 2.85306797 2.32472205 0 0 Z " fill="#81B7C9" transform="translate(100,195)"/>
<path d="M0 0 C2.64 0.99 5.28 1.98 8 3 C7.01 3.33 6.02 3.66 5 4 C4.67 4.66 4.34 5.32 4 6 C2.62437146 4.71034824 1.29233607 3.37310707 0 2 C0 1.34 0 0.68 0 0 Z " fill="#BFE6EA" transform="translate(158,180)"/>
<path d="M0 0 C0.66 0.66 1.32 1.32 2 2 C1.64700993 5.44165321 0.95418308 7.06872538 -1 10 C-1.125 3.375 -1.125 3.375 0 0 Z " fill="#5EAAC4" transform="translate(107,171)"/>
<path d="M0 0 C2.64 1.98 5.28 3.96 8 6 C7.01 6.33 6.02 6.66 5 7 C4.67 6.01 4.34 5.02 4 4 C3.01 4 2.02 4 1 4 C0.67 2.68 0.34 1.36 0 0 Z " fill="#E5F6F5" transform="translate(62,170)"/>
<path d="M0 0 C0.66 0 1.32 0 2 0 C0.55746343 3.36591866 -1.33264727 5.51047079 -4 8 C-3.40312566 4.65750371 -2.26396123 2.53563658 0 0 Z " fill="#E3F3F5" transform="translate(360,166)"/>
<path d="M0 0 C0.99 1.32 1.98 2.64 3 4 C2.67 4.66 2.34 5.32 2 6 C0.35 6 -1.3 6 -3 6 C-2.01 4.02 -1.02 2.04 0 0 Z " fill="#C5A765" transform="translate(258,132)"/>
<path d="M0 0 C0.66 0.99 1.32 1.98 2 3 C1.34 4.32 0.68 5.64 0 7 C-0.66 6.67 -1.32 6.34 -2 6 C-1.125 1.125 -1.125 1.125 0 0 Z " fill="#D3B369" transform="translate(262,125)"/>
<path d="M0 0 C-7.5 5 -7.5 5 -10 5 C-9 2 -9 2 -7.25 0.8125 C-4.70039426 -0.10819096 -2.69076919 -0.14948718 0 0 Z " fill="#E9F7F9" transform="translate(231,86)"/>
</svg>
